<?xml version="1.0" encoding="UTF-8" standalone="no"?>
<svg width="166px" height="72px" viewBox="0 0 166 72" version="1.1" xmlns="http://www.w3.org/2000/svg" xmlns:xlink="http://www.w3.org/1999/xlink" xmlns:sketch="http://www.bohemiancoding.com/sketch/ns">
    <!-- Generator: Sketch 3.1 (8751) - http://www.bohemiancoding.com/sketch -->
    <title>Logo with Borders</title>
    <desc>Created with Sketch.</desc>
    <defs></defs>
    <g id="Welcome" stroke="none" stroke-width="1" fill="none" fill-rule="evenodd" sketch:type="MSPage">
        <g id="Desktop" sketch:type="MSArtboardGroup" transform="translate(-371.000000, 0.000000)">
            <g id="Logo-with-Borders" sketch:type="MSLayerGroup" transform="translate(372.000000, 0.000000)">
                <path d="M158.303955,39.5098333 C159.165896,39.2471333 159.973657,38.7192667 160.726007,37.9287 C161.477127,37.1369 162.063246,36.1551667 162.489291,34.9822667 C162.91041,33.8106 163.124664,32.1604 163.124664,30.0341333 C163.124664,28.6774667 162.979366,27.3911 162.696157,26.1799667 C162.411716,24.9676 161.949963,23.9032333 161.318284,22.9905667 C160.685373,22.0754333 159.885,21.3736667 158.915933,20.8852667 C157.945634,20.3968667 156.673657,20.1526667 155.098769,20.1526667 L147.112276,20.1526667 L147.112276,39.8712 L156.842351,39.8712 C157.30903,39.7824 157.794179,39.6664667 158.303955,39.5098333 L158.303955,39.5098333 Z M156.203284,35.1043667 C155.726754,35.3905 154.927612,35.5323333 153.804627,35.5323333 L152.489552,35.5323333 L152.489552,24.6592667 L153.829254,24.6592667 C155.221903,24.6592667 156.219291,25.049 156.818955,25.826 C157.422313,26.6042333 157.722761,28.0484667 157.722761,30.1562333 C157.722761,31.7497 157.588545,32.9016333 157.318881,33.6108 C157.049216,34.3212 156.678582,34.8194667 156.203284,35.1043667 L156.203284,35.1043667 Z" id="Fill-1" fill="#58595B" sketch:type="MSShapeGroup"></path>
                <path d="M132.850858,29.1251667 L139.257537,39.8712 L144.435336,39.8712 L144.435336,20.1526667 L139.365896,20.1526667 L139.365896,31.1614 L132.813918,20.1526667 L127.7925,20.1526667 L127.7925,39.8712 L132.850858,39.8712 L132.850858,29.1251667" id="Fill-2" fill="#58595B" sketch:type="MSShapeGroup"></path>
                <path d="M112.124888,39.3199 C112.526306,39.5419 112.970821,39.7170333 113.435037,39.8712 L120.337948,39.8712 C120.876045,39.6812667 121.37597,39.442 121.832799,39.1497 C123.12694,38.3221333 124.115709,37.1640333 124.800336,35.6754 C125.486194,34.1867667 125.828507,32.2788 125.828507,29.9527333 C125.828507,26.7497667 125.044142,24.2584333 123.477873,22.4799667 C121.912836,20.7015 119.68041,19.8122667 116.78306,19.8122667 C113.95959,19.8122667 111.754254,20.7187667 110.17444,22.5280667 C108.58847,24.3373667 107.797948,26.8669333 107.797948,30.1155333 C107.797948,32.4428333 108.196903,34.3791667 108.997276,35.9257667 C109.796418,37.4748333 110.838134,38.6045667 112.124888,39.3199 L112.124888,39.3199 Z M114.159067,25.7840667 C114.817836,24.9071667 115.685933,24.4693333 116.770746,24.4693333 C117.903582,24.4693333 118.797537,24.901 119.46,25.7655667 C120.121231,26.6301333 120.452463,27.9991333 120.452463,29.8725667 C120.452463,32.0975 120.132313,33.6391667 119.500634,34.5000333 C118.867724,35.3609 117.973769,35.7901 116.818769,35.7901 C115.695784,35.7901 114.807985,35.3522667 114.154142,34.4729 C113.500299,33.596 113.175224,32.153 113.175224,30.1426667 C113.175224,28.1163 113.502761,26.6634333 114.159067,25.7840667 L114.159067,25.7840667 Z" id="Fill-3" fill="#58595B" sketch:type="MSShapeGroup"></path>
                <path d="M25.9714925,39.8712 L30.973209,39.8712 L37.3737313,20.1526667 L31.9164179,20.1526667 L28.0512313,34.4729 L24.1343284,20.1526667 L18.5132463,20.1526667 L24.958097,39.6689333 C25.3151866,39.7256667 25.6513433,39.7947333 25.9714925,39.8712" id="Fill-4" fill="#58595B" sketch:type="MSShapeGroup"></path>
                <path d="M39.6,39.8712 L40.4003731,36.7669 L46.5066045,36.7669 L47.3303731,39.8712 L52.9477612,39.8712 L46.4684328,20.1526667 L40.6035448,20.1526667 L34.1217537,39.8712 L39.6,39.8712 L39.6,39.8712 Z M43.4701119,25.3104667 L45.3910075,32.4638 L41.5701493,32.4638 L43.4701119,25.3104667 L43.4701119,25.3104667 Z" id="Fill-5" fill="#58595B" sketch:type="MSShapeGroup"></path>
                <path d="M56.7476866,39.1854667 C57.2094403,39.4703667 57.7364552,39.6862 58.2942537,39.8712 L65.6552239,39.8712 C65.8189925,39.8206333 65.9901493,39.7774667 66.1489925,39.7207333 C67.3704851,39.2730333 68.7766791,38.4282 70.3663433,37.1874667 L70.3663433,28.7033667 L62.0572388,28.7033667 L62.0572388,32.8449 L65.6552239,32.8449 L65.6552239,34.7183333 C64.9508955,35.1981 64.3253731,35.5372667 63.7798881,35.7358333 C63.234403,35.9356333 62.6593657,36.0343 62.0572388,36.0343 C60.7926493,36.0343 59.8038806,35.5742667 59.0970896,34.6492667 C58.3878358,33.7267333 58.0344403,32.1875333 58.0344403,30.0341333 C58.0344403,28.0077667 58.3853731,26.5265333 59.0847761,25.5892 C59.7854104,24.6518667 60.7249254,24.1844333 61.9033209,24.1844333 C62.6950746,24.1844333 63.3464552,24.3817667 63.8562313,24.7826 C64.3660075,25.1797333 64.726791,25.7532333 64.9410448,26.5043333 L70.128694,25.4461333 C69.8134701,24.161 69.339403,23.1003333 68.7126493,22.2629 C68.0822015,21.4254667 67.2904478,20.8088 66.3361567,20.4104333 C65.3843284,20.0133 63.9461194,19.8122667 62.0215299,19.8122667 C60.0279851,19.8122667 58.4432463,20.1329333 57.2623881,20.7767333 C55.7515299,21.6104667 54.6051493,22.829 53.8207836,24.4348 C53.0364179,26.0406 52.6448507,27.9313 52.6448507,30.1032 C52.6448507,32.1653333 53.0031716,33.9931333 53.7198134,35.5853667 C54.4364552,37.1813 55.443694,38.3776333 56.7476866,39.1854667" id="Fill-6" fill="#58595B" sketch:type="MSShapeGroup"></path>
                <path d="M77.1855224,36.7669 L83.2917537,36.7669 L84.1130597,39.8712 L89.7316791,39.8712 L83.2523507,20.1526667 L77.3874627,20.1526667 L70.9081343,39.8712 L76.3839179,39.8712 L77.1855224,36.7669 L77.1855224,36.7669 Z M80.2564925,25.3104667 L82.1749254,32.4638 L78.3540672,32.4638 L80.2564925,25.3104667 L80.2564925,25.3104667 Z" id="Fill-7" fill="#58595B" sketch:type="MSShapeGroup"></path>
                <path d="M102.237201,39.7824 C103.148396,39.6442667 103.826866,39.4284333 104.278769,39.1299667 C105.007724,38.6502 105.580299,37.9977667 105.998955,37.1751333 C106.420075,36.3512667 106.629403,35.4250333 106.629403,34.3927333 C106.629403,33.1261 106.335112,32.0740667 105.744067,31.2354 C105.154254,30.3992 104.235672,29.8084333 102.985858,29.4643333 C103.808396,29.1387333 104.432687,28.6959667 104.861194,28.1335667 C105.501493,27.2924333 105.821642,26.2835667 105.821642,25.1069667 C105.821642,23.7034333 105.37097,22.5280667 104.474552,21.5771667 C103.576903,20.6275 102.287687,20.1526667 100.611828,20.1526667 L90.5443657,20.1526667 L90.5443657,39.8712 L101.609216,39.8712 C101.809925,39.8440667 102.009403,39.8157 102.237201,39.7824 L102.237201,39.7824 Z M95.9696642,24.1844333 L98.343694,24.1844333 C99.1588433,24.1844333 99.7289552,24.346 100.058955,24.6716 C100.387724,24.9996667 100.551493,25.4523 100.551493,26.0295 C100.551493,26.6535667 100.387724,27.1308667 100.058955,27.4626333 C99.7289552,27.7931667 99.1465299,27.9572 98.3079851,27.9572 L95.9696642,27.9572 L95.9696642,24.1844333 L95.9696642,24.1844333 Z M100.672164,35.2129 C100.291679,35.5878333 99.6378358,35.7765333 98.7118657,35.7765333 L95.9696642,35.7765333 L95.9696642,31.7435333 L98.6995522,31.7435333 C99.6427612,31.7435333 100.30153,31.9248333 100.67709,32.2812667 C101.051418,32.6389333 101.239813,33.1125333 101.239813,33.6996 C101.239813,34.3335333 101.048955,34.8367333 100.672164,35.2129 L100.672164,35.2129 Z" id="Fill-8" fill="#58595B" sketch:type="MSShapeGroup"></path>
                <path d="M7.66634328,54.8932 L2.05141791,54.0903 L1.92705224,54.9302 L7.54197761,55.7442 L7.66634328,54.8932 L7.66634328,54.8932 Z M8.61447761,28.3518667 C10.3001866,28.5985333 11.5697015,28.2408667 11.7174627,27.1802 C11.8516791,26.2416333 11.1251866,25.4153 9.00727612,25.1069667 C7.49395522,24.8862 6.13824627,25.1464333 5.97817164,26.2675333 C5.83041045,27.3405333 6.92630597,28.1175333 8.61447761,28.3518667 L8.61447761,28.3518667 Z M15.8055224,38.8117667 C15.1147388,38.8117667 14.720709,38.9462 14.523694,39.2792 L14.5113806,39.2792 C14.3279104,38.7365333 13.8476866,38.3788667 13.2073881,38.2802 C12.7394776,38.2185333 12.3442164,38.2666333 12.0129851,38.4898667 C11.6546642,38.7488667 11.4958209,39.1682 11.420709,39.6862 C11.4096269,39.7602 11.4096269,39.8342 11.3973134,39.8958667 L11.385,39.8958667 C11.3603731,40.1672 11.3468284,40.4249667 11.3714552,40.6482 L16.9125,41.4375333 L17.0245522,40.6482 L14.685,40.3139667 L14.720709,40.1302 C14.7330224,40.0315333 14.7576493,39.9698667 14.7958209,39.8958667 L14.8192164,39.8958667 C14.9435821,39.6862 15.2378731,39.5986333 15.793209,39.5986333 C16.4692164,39.6122 17.0368657,39.5875333 17.195709,39.5394333 L17.3188433,38.7131 C17.1230597,38.7612 16.4938433,38.7982 15.8055224,38.8117667 L15.8055224,38.8117667 Z M12.0745522,35.2708667 L11.7777985,37.3416333 L17.3927239,38.1556333 L17.7141045,35.9973 L16.9383582,35.8752 L16.7413433,37.2442 L14.9546642,36.9852 L15.1270522,35.7888667 L14.3882463,35.6778667 L14.2158582,36.8742 L12.6766791,36.6534333 L12.8490672,35.3806333 L12.0745522,35.2708667 L12.0745522,35.2708667 Z M15.7427239,49.5282 L9.98126866,49.7625333 L9.8458209,50.6875333 L15.3117537,52.6238667 L15.4114925,51.8468667 L13.9942164,51.3658667 L14.1308955,50.3668667 L15.631903,50.3052 L15.7427239,49.5282 L15.7427239,49.5282 Z M12.5917164,31.7312 L18.2054104,32.5328667 L18.5132463,30.3881 L17.7633582,30.2894333 L17.5663433,31.6325333 L12.701306,30.9295333 L12.5917164,31.7312 L12.5917164,31.7312 Z M10.7557836,33.4825333 L4.98078358,33.7662 L4.83425373,34.7528667 L10.276791,36.7508667 L10.398694,35.9245333 L8.97033582,35.4312 L9.13164179,34.3705333 L10.6338806,34.2977667 L10.7557836,33.4825333 L10.7557836,33.4825333 Z M10.3260448,47.2342 C10.276791,47.5795333 10.2644776,47.9002 10.3001866,48.1468667 L15.8178358,48.9362 C15.8670896,48.7635333 15.9397388,48.4922 15.9779104,48.2085333 C16.0764179,47.5672 15.9520522,47.0492 15.6195896,46.6545333 C15.2514179,46.2117667 14.5483209,45.8282 13.3428358,45.6555333 C12.21,45.4964333 11.4453358,45.6432 10.9786567,46.0008667 C10.6203358,46.2475333 10.398694,46.6422 10.3260448,47.2342 L10.3260448,47.2342 Z M5.51149254,30.0662 L5.11746269,32.8288667 L5.92891791,32.9534333 L6.06559701,31.9889667 L10.8678358,32.6808667 L10.9909701,31.8422 L6.1875,31.1515333 L6.3241791,30.1895333 L5.51149254,30.0662 L5.51149254,30.0662 Z M3.8861194,41.2648667 L9.49981343,42.0653 L9.62294776,41.2155333 L4.00925373,40.4138667 L3.8861194,41.2648667 L3.8861194,41.2648667 Z M8.90876866,46.1612 L3.13376866,46.4572 L2.9983209,47.4451 L8.44208955,49.4295333 L8.56399254,48.6155333 L7.13563433,48.1222 L7.28462687,47.0492 L8.7991791,46.9875333 L8.90876866,46.1612 L8.90876866,46.1612 Z M0.0197014925,-0.520466667 L164.735261,-0.372466667 L164.735261,39.8712 L156.905149,39.8958667 C157.347201,39.8083 157.80403,39.7108667 158.283022,39.5628667 C159.146194,39.2903 159.945336,38.7723 160.697687,37.9718667 C161.447575,37.1825333 162.039851,36.2069667 162.46959,35.0365333 C162.888246,33.8648667 163.097575,32.2122 163.097575,30.0797667 C163.097575,28.7218667 162.951045,27.4392 162.667836,26.2305333 C162.383396,25.0218667 161.92903,23.9488667 161.301045,23.0362 C160.660746,22.1223 159.860373,21.4205333 158.886381,20.9395333 C157.927164,20.4462 156.645336,20.1995333 155.069216,20.1995333 L147.090112,20.1995333 L147.090112,39.8958667 L144.405784,39.8958667 L144.405784,20.1995333 L139.346194,20.1995333 L139.346194,31.2144333 L132.795448,20.1995333 L127.771567,20.1995333 L127.771567,39.8958667 L120.358881,39.8958667 C120.876045,39.7108667 121.367351,39.4888667 121.811866,39.2052 C123.104776,38.3653 124.088619,37.2072 124.779403,35.7284333 C125.467724,34.2348667 125.801418,32.3232 125.801418,30.0045333 C125.801418,26.7978667 125.02444,24.3065333 123.449552,22.5305333 C121.884515,20.7545333 119.657015,19.8653 116.763358,19.8653 C113.930037,19.8653 111.725933,20.7668667 110.149813,22.5811 C108.562612,24.3916333 107.773321,26.9212 107.773321,30.1648667 C107.773321,32.4958667 108.168582,34.4322 108.968955,35.9738667 C109.768097,37.5278667 110.81597,38.6502 112.095336,39.3655333 C112.490597,39.5875333 112.908022,39.7478667 113.352537,39.8958667 L101.727425,39.8958667 C101.888731,39.8835333 102.035261,39.8588667 102.208881,39.8342 C103.120075,39.6973 103.809627,39.4765333 104.25291,39.1805333 C104.979403,38.6995333 105.558134,38.0458667 105.97556,37.2195333 C106.395448,36.4055333 106.604776,35.4682 106.604776,34.4445333 C106.604776,33.1742 106.309254,32.1258667 105.716978,31.2872 C105.125933,30.4485333 104.21597,29.8565333 102.958769,29.5112 C103.783769,29.1905333 104.411754,28.7477667 104.843955,28.1792 C105.484254,27.3405333 105.79209,26.3292 105.79209,25.1575333 C105.79209,23.7515333 105.348806,22.5811 104.449925,21.6302 C103.551045,20.6805333 102.270448,20.1995333 100.582276,20.1995333 L90.5234328,20.1995333 L90.5234328,39.8958667 L89.6984328,39.8958667 L83.2338806,20.1995333 L77.3603731,20.1995333 L70.8958209,39.8958667 L65.6995522,39.8958667 C65.8473134,39.8588667 65.9827612,39.8218667 66.129291,39.7725333 C67.3483209,39.3162 68.7532836,38.4775333 70.3404851,37.2306333 L70.3404851,28.7588667 L62.0289179,28.7588667 L62.0289179,32.8905333 L65.6379851,32.8905333 L65.6379851,34.7639667 C64.923806,35.2462 64.3081343,35.5903 63.7527985,35.7888667 C63.2122388,35.9862 62.6322761,36.0848667 62.0289179,36.0848667 C60.7741791,36.0848667 59.7755597,35.6297667 59.0749254,34.7047667 C58.3595149,33.7797667 58.0147388,32.2381 58.0147388,30.0797667 C58.0147388,28.0558667 58.3595149,26.5758667 59.0613806,25.6385333 C59.7632463,24.6999667 60.6990672,24.2325333 61.8823881,24.2325333 C62.6692164,24.2325333 63.3230597,24.4311 63.8279104,24.8381 C64.3450746,25.2315333 64.7009328,25.7988667 64.923806,26.5499667 L70.1065299,25.4905333 C69.7876119,24.2078667 69.3184701,23.1472 68.6904851,22.3085333 C68.0625,21.4698667 67.2621269,20.8532 66.3152239,20.4585333 C65.3547761,20.0638667 63.9264179,19.8653 61.993209,19.8653 C60.0095149,19.8653 58.4210821,20.1872 57.2389925,20.8297667 C55.7256716,21.6561 54.5805224,22.8758667 53.7912313,24.4792 C53.0167164,26.0948667 52.6214552,27.9806333 52.6214552,30.1525333 C52.6214552,32.2122 52.9785448,34.0375333 53.6939552,35.6408667 C54.406903,37.2306333 55.4178358,38.4282 56.7218284,39.2311 C57.1663433,39.5135333 57.6835075,39.7232 58.2117537,39.8958667 L52.918209,39.8958667 L46.4401119,20.1995333 L40.5789179,20.1995333 L34.1020522,39.8958667 L30.9633582,39.8958667 L37.3540299,20.1995333 L31.8991791,20.1995333 L28.0327612,34.5185333 L24.1047761,20.1995333 L18.4898507,20.1995333 L24.9297761,39.7232 C25.2622388,39.7725333 25.5577612,39.8342 25.8532836,39.8958667 L25.9271642,39.8958667 C26.9122388,40.1425333 27.7360075,40.4755333 28.3639925,40.9195333 C29.2641045,41.5485333 29.9536567,42.3502 30.4572761,43.3492 C30.9510448,44.3482 31.2588806,45.4569667 31.3561567,46.7038667 C31.468209,47.9495333 31.4300373,49.2322 31.2330224,50.5765333 C30.9375,52.6867667 30.4954478,54.2888667 29.9031716,55.3865333 C29.3244403,56.4842 28.5991791,57.3722 27.7483209,58.0505333 C26.8876119,58.7288667 26.0121269,59.1358667 25.126791,59.2727667 C23.9077612,59.4701 22.8229478,59.4935333 21.8760448,59.3578667 L0.437126866,56.2622 L2.75205224,39.8712 L0.0197014925,39.8712 L0.0197014925,-0.520466667 L0.0197014925,-0.520466667 Z M10.8801493,22.3208667 L10.8801493,22.3319667 C10.3125,22.4195333 9.55029851,22.5922 9.0208209,22.6908667 L6.48425373,23.2458667 L6.37343284,24.0228667 L11.9871269,24.8381 L12.0991791,24.0833 L10.5353731,23.8625333 C9.36559701,23.6898667 8.56399254,23.6158667 7.91261194,23.5418667 L7.91261194,23.5295333 C8.52828358,23.4666333 9.24246269,23.3322 9.78302239,23.2088667 L12.3085075,22.6538667 L12.4193284,21.8645333 L6.79208955,21.0628667 L6.69235075,21.8028667 L8.26847015,22.0372 C9.27817164,22.1728667 10.1536567,22.2592 10.8801493,22.3208667 L10.8801493,22.3208667 Z M7.87567164,53.3885333 L5.75776119,52.9815333 C5.09283582,52.8569667 4.35279851,52.7102 3.71373134,52.6115333 L3.72481343,52.5992 C4.36511194,52.5881 5.07929104,52.5486333 5.67156716,52.4894333 L7.9741791,52.2797667 L8.04682836,51.7112 L5.84395522,50.8232 C5.32679104,50.6135333 4.67294776,50.3792 4.0708209,50.1806333 L4.0708209,50.1572 C4.68649254,50.2558667 5.46100746,50.3422 6.08899254,50.3903 L8.28201493,50.5999667 L8.39160448,49.8365333 L2.72742537,49.3432 L2.59320896,50.2558667 L4.79608209,51.0822 C5.51149254,51.3547667 6.0766791,51.5508667 6.69235075,51.7358667 L6.69235075,51.7482 C6.04097015,51.7617667 5.43761194,51.8098667 4.68649254,51.8727667 L2.33462687,52.0701 L2.21026119,52.9556333 L7.77593284,54.1162 L7.87567164,53.3885333 L7.87567164,53.3885333 Z M9.46287313,53.3515333 L11.679291,54.1532 C12.3934701,54.3986333 12.948806,54.5972 13.5755597,54.7822 L13.5755597,54.7945333 C12.9241791,54.8056333 12.3208209,54.8451 11.5697015,54.8932 L9.23014925,55.0547667 L9.10578358,55.8922 L14.6726866,57.0392 L14.771194,56.3473 L12.6409701,55.9538667 C11.9760448,55.8305333 11.2495522,55.6825333 10.6080224,55.5838667 L10.6080224,55.5727667 C11.2495522,55.5727667 11.9760448,55.5333 12.5535448,55.4852 L14.8561567,55.3125333 L14.9300373,54.7575333 L12.7271642,53.9065333 C12.1976866,53.7092 11.5438433,53.4872 10.9417164,53.2898667 L10.9417164,53.2775333 C11.5573881,53.3638667 12.3331343,53.4502 12.9598881,53.5131 L15.1529104,53.7227667 L15.2514179,53.0062 L9.58600746,52.4894333 L9.46287313,53.3515333 L9.46287313,53.3515333 Z M11.0143657,42.5475333 L10.7188433,44.6195333 L16.335,45.4335333 L16.6428358,43.2752 L15.8670896,43.1518667 L15.6811567,44.5208667 L13.895709,44.2631 L14.0693284,43.0655333 L13.3169776,42.9545333 L13.156903,44.1508667 L11.6066418,43.9288667 L11.7913433,42.6585333 L11.0143657,42.5475333 L11.0143657,42.5475333 Z M8.6625,37.7992 C8.09731343,37.8867667 7.33264925,38.0458667 6.79208955,38.1556333 L4.26660448,38.7131 L4.15578358,39.4888667 L7.00018657,39.8958667 L7.1233209,39.8958667 L9.75962687,40.2782 L9.80764925,39.8958667 L9.83227612,39.8958667 L9.88152985,39.5505333 L8.31895522,39.3162 C7.1491791,39.1558667 6.34880597,39.0695333 5.69496269,39.0078667 L5.69496269,38.9955333 C6.31063433,38.9338667 7.02481343,38.7858667 7.56660448,38.6736333 L10.0908582,38.1198667 L10.2016791,37.3305333 L4.58798507,36.5288667 L4.47716418,37.2701 L6.05328358,37.4908667 C7.06175373,37.6388667 7.93600746,37.7128667 8.6625,37.7881 L8.6625,37.7992 L8.6625,37.7992 Z M12.4808955,32.4712 L12.1841418,34.5308667 L17.7990672,35.3448667 L18.106903,33.1865333 L17.3323881,33.0755333 L17.1353731,34.4322 L15.3622388,34.1732 L15.5333955,32.9768667 L14.7835075,32.8782 L14.6098881,34.0745333 L13.070709,33.8525333 L13.2566418,32.5822 L12.4808955,32.4712 L12.4808955,32.4712 Z M6.1875,45.5198667 C7.1861194,45.6802 8.02343284,45.5445333 8.53936567,45.1881 C8.98264925,44.8797667 9.20552239,44.4592 9.29048507,43.9153 C9.34097015,43.5477667 9.30402985,43.0889667 9.24246269,42.8435333 L6.33526119,42.4242 L6.13824627,43.7808667 L6.86597015,43.8918667 L6.95216418,43.3122 L8.52828358,43.5477667 C8.53936567,43.5958667 8.53936567,43.6945333 8.52828358,43.8302 C8.44208955,44.3852 7.84981343,44.8662 6.3241791,44.6442 C4.7480597,44.4222 4.30477612,43.7056333 4.40328358,43.0162 C4.44022388,42.7572 4.51410448,42.5598667 4.61261194,42.4365333 L3.87257463,42.1528667 C3.76298507,42.3144333 3.6386194,42.5833 3.59059701,42.9545333 C3.44160448,44.0028667 4.08190299,45.1992 6.1875,45.5198667 L6.1875,45.5198667 Z M5.58414179,29.4988667 L11.2002985,30.3005333 L11.3222015,29.4631 L5.70850746,28.6478667 L5.58414179,29.4988667 L5.58414179,29.4988667 Z M25.8779104,49.9352 C26.1734328,47.8508667 26.0860075,46.3708667 25.5934701,45.5198667 C25.1132463,44.6701 24.1786567,44.1385333 22.7995522,43.9412 L21.4684701,43.7451 L19.929291,54.5108667 L21.2357463,54.6958667 C22.3562687,54.8562 23.1566418,54.8315333 23.673806,54.6083 C24.1786567,54.3986333 24.6219403,53.9558667 24.9901119,53.2898667 C25.3484328,52.6362 25.6562687,51.5138667 25.8779104,49.9352 L25.8779104,49.9352 Z" id="Fill-9" fill="#FFFFFF" sketch:type="MSShapeGroup"></path>
                <path d="M99.0320149,70.4319667 L95.0781716,69.8658667 L93.8714552,54.3628667 L91.7301493,69.3848667 L87.3699627,68.7682 L90.1909701,49.0583 L97.185,50.0708667 L98.1700746,62.4412 L102.564739,50.8478667 L109.56,51.8468667 L106.775933,71.5666333 L102.393582,70.9265333 L104.534888,55.8922 L99.0320149,70.4319667" id="Fill-10" fill="#FFFFFF" sketch:type="MSShapeGroup"></path>
                <path d="M157.705522,30.2018667 C157.705522,31.8052 157.568843,32.9534333 157.299179,33.6552 C157.027052,34.3705333 156.658881,34.8638667 156.178657,35.1475333 C155.697201,35.4435333 154.910373,35.5792 153.777537,35.5792 L152.472313,35.5792 L152.472313,24.7135333 L153.802164,24.7135333 C155.192351,24.7135333 156.19097,25.0958667 156.794328,25.8728667 C157.397687,26.6486333 157.705522,28.0916333 157.705522,30.2018667" id="Fill-11" fill="#FFFFFF" sketch:type="MSShapeGroup"></path>
                <path d="M132.831157,29.1782 L139.221828,39.8958667 L132.831157,39.8958667 L132.831157,29.1782" id="Fill-12" fill="#FFFFFF" sketch:type="MSShapeGroup"></path>
                <path d="M120.432761,29.9182 C120.432761,32.1505333 120.111381,33.6922 119.471082,34.5432 C118.844328,35.4065333 117.944216,35.8394333 116.799067,35.8394333 C115.666231,35.8394333 114.779664,35.4065333 114.127052,34.5185333 C113.475672,33.6416333 113.155522,32.1986333 113.155522,30.1895333 C113.155522,28.1668667 113.475672,26.7115333 114.139366,25.8358667 C114.793209,24.9602 115.666231,24.5162 116.749813,24.5162 C117.882649,24.5162 118.769216,24.9478667 119.435373,25.8112 C120.099067,26.6745333 120.432761,28.0435333 120.432761,29.9182" id="Fill-13" fill="#FFFFFF" sketch:type="MSShapeGroup"></path>
                <path d="M100.657388,32.3367667 C101.02556,32.6932 101.210261,33.1631 101.210261,33.7538667 C101.210261,34.3828667 101.02556,34.8885333 100.643843,35.2585333 C100.263358,35.6408667 99.6095149,35.8258667 98.6860075,35.8258667 L95.9413433,35.8258667 L95.9413433,31.7916333 L98.6749254,31.7916333 C99.6230597,31.7916333 100.27444,31.9778667 100.657388,32.3367667" id="Fill-14" fill="#FFFFFF" sketch:type="MSShapeGroup"></path>
                <path d="M100.041716,24.7258667 C100.361866,25.0477667 100.533022,25.5028667 100.533022,26.0825333 C100.533022,26.6992 100.361866,27.1802 100.041716,27.5144333 C99.7092537,27.8462 99.118209,28.0065333 98.2796642,28.0065333 L95.9413433,28.0065333 L95.9413433,24.2325333 L98.3178358,24.2325333 C99.1305224,24.2325333 99.7092537,24.3916333 100.041716,24.7258667" id="Fill-15" fill="#FFFFFF" sketch:type="MSShapeGroup"></path>
                <path d="M82.0887313,47.9002 L85.7322761,68.5227667 L80.1678358,67.7322 L79.7602612,64.3528667 L73.7266791,63.4895333 L72.4214552,66.6098667 L66.9801493,65.8328667 L76.2755597,47.0615333 L82.0887313,47.9002 L82.0887313,47.9002 Z M79.2677239,59.9375333 L78.3823881,52.5745333 L75.4887313,59.3948667 L79.2677239,59.9375333 L79.2677239,59.9375333 Z" id="Fill-16" fill="#FFFFFF" sketch:type="MSShapeGroup"></path>
                <path d="M83.2695896,36.8125333 L84.0822761,39.8958667 L76.3629851,39.8958667 L77.1633582,36.8125333 L83.2695896,36.8125333" id="Fill-17" fill="#FFFFFF" sketch:type="MSShapeGroup"></path>
                <path d="M80.229403,25.3561 L82.1490672,32.5069667 L78.331903,32.5069667 L80.229403,25.3561" id="Fill-18" fill="#FFFFFF" sketch:type="MSShapeGroup"></path>
                <path d="M68.4085075,45.9392 L67.8039179,50.1448667 L58.8766791,48.8622 L58.4210821,51.9948667 L66.7092537,53.1788667 L66.129291,57.1995333 L57.8546642,56.0032 L57.2882463,59.8894333 L66.4876119,61.2078667 L65.8473134,65.6725333 L51.3174627,63.5894333 L54.1360075,43.8918667 L68.4085075,45.9392" id="Fill-19" fill="#FFFFFF" sketch:type="MSShapeGroup"></path>
                <path d="M49.9248134,45.6062 C50.3311567,46.5558667 50.4419776,47.6547667 50.2708209,48.9115333 C50.1095149,50.0092 49.7782836,50.9218667 49.248806,51.6495333 C48.7316418,52.3895333 48.0777985,52.9445333 47.2909701,53.3392 C46.7984328,53.5858667 46.1322761,53.7585333 45.3072761,53.8448667 C45.9106343,54.1778667 46.3428358,54.4862 46.6014179,54.7698667 C46.7725746,54.9672 47.0077612,55.3495333 47.3032836,55.9292 C47.598806,56.5088667 47.7835075,56.9528667 47.8684701,57.2612 L49.6305224,63.3403 L43.6215672,62.4782 L41.626791,56.0525333 C41.3805224,55.2138667 41.1342537,54.6712 40.8867537,54.3875333 C40.543209,54.0311 40.1368657,53.8214333 39.643097,53.7462 L39.1751866,53.6833 L38.0312687,61.6765333 L32.6860075,60.9131 L34.1020522,50.9835333 L35.5070149,41.2032 L44.3714552,42.4858667 C46.0214552,42.7214333 47.2527985,43.0655333 48.0777985,43.5083 C48.9027985,43.9547667 49.5184701,44.6565333 49.9248134,45.6062 L49.9248134,45.6062 Z M44.8529104,48.6278667 C44.9391045,47.9865333 44.840597,47.4808667 44.5327612,47.0862 C44.2372388,46.6903 43.5969403,46.4325333 42.6229478,46.2833 L40.2833955,45.9515333 L39.7058955,49.9598667 L41.9592537,50.2805333 C42.193209,50.3175333 42.6857463,50.2916333 43.3999254,50.2201 C43.768097,50.1806333 44.0894776,50.0227667 44.3480597,49.7255333 C44.6312687,49.4172 44.7901119,49.0583 44.8529104,48.6278667 L44.8529104,48.6278667 Z" id="Fill-20" fill="#FFFFFF" sketch:type="MSShapeGroup"></path>
                <path d="M46.4782836,36.8125333 L47.3032836,39.8958667 L39.5815299,39.8958667 L40.381903,36.8125333 L46.4782836,36.8125333" id="Fill-21" fill="#FFFFFF" sketch:type="MSShapeGroup"></path>
                <path d="M43.4479478,25.3561 L45.3700746,32.5069667 L41.5529104,32.5069667 L43.4479478,25.3561" id="Fill-22" fill="#FFFFFF" sketch:type="MSShapeGroup"></path>
                <path d="M13.2073881,46.4806333 C14.9177239,46.7297667 15.3622388,47.3069667 15.2883582,47.8508667 C15.2760448,47.9002 15.2637313,47.9742 15.2378731,48.0482 L11.0525373,47.4451 C11.0389925,47.3698667 11.0389925,47.2835333 11.0525373,47.2083 C11.1510448,46.5201 11.9378731,46.2968667 13.2073881,46.4806333" id="Fill-23" fill="#FFFFFF" sketch:type="MSShapeGroup"></path>
                <path d="M14.0447015,39.8958667 L14.0311567,39.8958667 C14.0311567,39.9328667 14.0447015,39.9698667 14.0311567,40.0056333 L14.0065299,40.2153 L12.1114925,39.9464333 L12.1114925,39.8958667 L12.1361194,39.8958667 C12.123806,39.8342 12.123806,39.7602 12.1361194,39.6862 C12.2223134,39.1682 12.6163433,39.0325333 13.1692164,39.1065333 C13.6863806,39.1805333 14.0311567,39.4888667 14.0447015,39.8958667" id="Fill-24" fill="#FFFFFF" sketch:type="MSShapeGroup"></path>
                <path d="M13.4290299,50.3422 L13.3058955,51.1685333 L12.048694,50.7615333 C11.7051493,50.6505333 11.1879851,50.5025333 10.8050373,50.3903 L10.8050373,50.3668667 C11.2126119,50.3668667 11.7285448,50.3792 12.1114925,50.3668667 L13.4290299,50.3422" id="Fill-25" fill="#FFFFFF" sketch:type="MSShapeGroup"></path>
                <path d="M8.92231343,25.9962 C10.0551493,26.1565333 11.0266791,26.4784333 10.9527985,27.0198667 C10.8801493,27.5625333 9.96895522,27.6488667 8.74869403,27.4749667 C7.56660448,27.3158667 6.68126866,26.9569667 6.75391791,26.4278667 C6.82779851,25.8617667 7.90029851,25.8482 8.92231343,25.9962" id="Fill-26" fill="#FFFFFF" sketch:type="MSShapeGroup"></path>
                <path d="M8.41746269,34.3569667 L8.29309701,35.2462 L7.03712687,34.8145333 C6.69235075,34.7047667 6.17641791,34.5432 5.79347015,34.4322 L5.79347015,34.4075333 C6.19981343,34.4075333 6.71697761,34.4075333 7.09992537,34.3964333 L8.41746269,34.3569667" id="Fill-27" fill="#FFFFFF" sketch:type="MSShapeGroup"></path>
                <path d="M6.58276119,47.0492 L6.45962687,47.9236333 L5.20365672,47.4932 C4.85764925,47.3822 4.34048507,47.2342 3.95876866,47.1232 L3.95876866,47.0985333 C4.35279851,47.0862 4.88227612,47.0862 5.26399254,47.0862 L6.58276119,47.0492" id="Fill-28" fill="#FFFFFF" sketch:type="MSShapeGroup"></path>
                <path d="M99.0320149,70.4393667 L95.0781716,69.8708 L93.8714552,54.3690333 L91.7301493,69.3922667 L87.3699627,68.7756 L90.1909701,49.0657 L97.185,50.0770333 L98.1700746,62.4473667 L102.564739,50.8528 L109.56,51.8530333 L106.775933,71.5740333 L102.393582,70.9339333 L104.534888,55.8971333 L99.0320149,70.4393667 L99.0320149,70.4393667 Z M0.0197014925,39.8712 L2.75328358,39.8712 L0.437126866,56.2622 L21.8760448,59.3591 C22.8229478,59.4935333 23.9077612,59.4701 25.126791,59.2727667 C26.0121269,59.1358667 26.8876119,58.7288667 27.7483209,58.0505333 C28.5991791,57.3722 29.3256716,56.4854333 29.9031716,55.3865333 C30.4954478,54.2888667 30.9375,52.6867667 31.2330224,50.5765333 C31.4300373,49.2322 31.468209,47.9507667 31.3573881,46.7038667 C31.2588806,45.4582 30.9510448,44.3482 30.4585075,43.3492 C29.9536567,42.3502 29.2641045,41.5485333 28.3639925,40.9195333 C27.7360075,40.4755333 26.9122388,40.1437667 25.9271642,39.8958667 L25.8532836,39.8958667 C25.5577612,39.8354333 25.2622388,39.7725333 24.9297761,39.7232 L0.0197014925,39.8712 Z M21.4684701,43.7451 L22.7995522,43.9424333 C24.1786567,44.1385333 25.1132463,44.6701 25.5934701,45.5198667 C26.0860075,46.3708667 26.1734328,47.8521 25.8779104,49.9352 C25.6562687,51.5138667 25.3484328,52.6362 24.9913433,53.2898667 C24.6219403,53.9558667 24.1786567,54.3998667 23.673806,54.6095333 C23.1566418,54.8315333 22.3562687,54.8562 21.2357463,54.6958667 L19.929291,54.5108667 L21.4684701,43.7451 L21.4684701,43.7451 Z M82.0887313,47.9063667 L85.7322761,68.5264667 L80.1678358,67.7383667 L79.7602612,64.3602667 L73.7266791,63.4944667 L72.4214552,66.6172667 L66.9801493,65.8390333 L76.2755597,47.0677 L82.0887313,47.9063667 L82.0887313,47.9063667 Z M79.2677239,59.9437 L78.3823881,52.5807 L75.4887313,59.4010333 L79.2677239,59.9437 L79.2677239,59.9437 Z M68.4085075,45.9453667 L67.8039179,50.1510333 L58.8766791,48.8683667 L58.4210821,52.0010333 L66.7092537,53.1850333 L66.129291,57.2057 L57.8546642,56.0093667 L57.2882463,59.8931333 L66.4876119,61.2140333 L65.8473134,65.6787 L51.3174627,63.5931333 L54.1360075,43.8980333 L68.4085075,45.9453667 L68.4085075,45.9453667 Z M49.9248134,45.6111333 C50.3311567,46.5620333 50.4419776,47.6597 50.2708209,48.9177 C50.1095149,50.0153667 49.7782836,50.9280333 49.248806,51.6557 C48.7316418,52.3944667 48.0777985,52.9519333 47.2909701,53.3453667 C46.7984328,53.5920333 46.1322761,53.7647 45.3072761,53.8510333 C45.9106343,54.1852667 46.3428358,54.4936 46.6014179,54.7760333 C46.7725746,54.9721333 47.0077612,55.3557 47.3032836,55.9353667 C47.598806,56.5138 47.7835075,56.9602667 47.8684701,57.2686 L49.6305224,63.3477 L43.6215672,62.4843667 L41.626791,56.0587 C41.3805224,55.2200333 41.1342537,54.6773667 40.8867537,54.3937 C40.543209,54.0348 40.1368657,53.8263667 39.643097,53.7523667 L39.1751866,53.6907 L38.0312687,61.6839333 L32.6860075,60.9180333 L34.1020522,50.9897 L35.5070149,41.2093667 L44.3714552,42.4920333 C46.0214552,42.7263667 47.2527985,43.0717 48.0777985,43.5157 C48.9027985,43.9597 49.5184701,44.6627 49.9248134,45.6111333 L49.9248134,45.6111333 Z M44.8529104,48.6352667 C44.9391045,47.9927 44.840597,47.4870333 44.5327612,47.0936 C44.2372388,46.6977 43.5969403,46.4374667 42.6229478,46.2907 L40.2833955,45.9589333 L39.7058955,49.9672667 L41.9592537,50.2867 C42.193209,50.3237 42.6857463,50.2990333 43.3999254,50.2250333 C43.768097,50.1880333 44.0894776,50.0264667 44.3480597,49.7304667 C44.6312687,49.4221333 44.7901119,49.0657 44.8529104,48.6352667 L44.8529104,48.6352667 Z" id="Stroke-29" stroke="#58595B" stroke-width="0.25" sketch:type="MSShapeGroup"></path>
                <path d="M18.5132463,30.3881 L18.2054104,32.5328667 L12.5917164,31.7312 L12.701306,30.9295333 L17.5663433,31.6325333 L17.7633582,30.2894333 L18.5132463,30.3881" id="Fill-30" fill="#58595B" sketch:type="MSShapeGroup"></path>
                <path d="M18.106903,33.1865333 L17.7990672,35.3448667 L12.1841418,34.5308667 L12.4808955,32.4712 L13.2566418,32.5822 L13.070709,33.8525333 L14.6098881,34.0745333 L14.7835075,32.8782 L15.5333955,32.9768667 L15.3622388,34.1732 L17.1353731,34.4322 L17.3323881,33.0755333 L18.106903,33.1865333" id="Fill-31" fill="#58595B" sketch:type="MSShapeGroup"></path>
                <path d="M17.7141045,35.9973 L17.3927239,38.1556333 L11.7777985,37.3416333 L12.0745522,35.2708667 L12.8490672,35.3806333 L12.6766791,36.6534333 L14.2158582,36.8742 L14.3882463,35.6778667 L15.1270522,35.7888667 L14.9546642,36.9852 L16.7413433,37.2442 L16.9383582,35.8752 L17.7141045,35.9973" id="Fill-32" fill="#58595B" sketch:type="MSShapeGroup"></path>
                <path d="M17.3188433,38.7131 L17.195709,39.5394333 C17.0368657,39.5875333 16.4692164,39.6122 15.793209,39.5986333 C15.2378731,39.5986333 14.9435821,39.6862 14.8192164,39.8958667 L14.7958209,39.8958667 C14.7576493,39.9698667 14.7330224,40.0315333 14.720709,40.1302 L14.685,40.3139667 L17.0245522,40.6482 L16.9125,41.4375333 L11.3714552,40.6482 C11.3468284,40.4249667 11.3603731,40.1672 11.385,39.8958667 L11.3973134,39.8958667 C11.4096269,39.8342 11.4096269,39.7602 11.420709,39.6862 C11.4958209,39.1682 11.6546642,38.7488667 12.0129851,38.4898667 C12.3442164,38.2666333 12.7394776,38.2185333 13.2073881,38.2802 C13.8476866,38.3788667 14.3279104,38.7365333 14.5113806,39.2792 L14.523694,39.2792 C14.720709,38.9462 15.1147388,38.8117667 15.8055224,38.8117667 C16.4938433,38.7982 17.1230597,38.7612 17.3188433,38.7131 L17.3188433,38.7131 Z M14.0311567,39.8958667 L14.0447015,39.8958667 C14.0311567,39.4888667 13.6863806,39.1805333 13.1692164,39.1065333 C12.6163433,39.0325333 12.2223134,39.1682 12.1361194,39.6862 C12.123806,39.7602 12.123806,39.8342 12.1361194,39.8958667 L12.1114925,39.8958667 L12.1114925,39.9464333 L14.0065299,40.2153 L14.0311567,40.0056333 C14.0447015,39.9698667 14.0311567,39.9328667 14.0311567,39.8958667 L14.0311567,39.8958667 Z" id="Fill-33" fill="#58595B" sketch:type="MSShapeGroup"></path>
                <path d="M16.6428358,43.2752 L16.335,45.4335333 L10.7188433,44.6195333 L11.0143657,42.5475333 L11.7913433,42.6585333 L11.6066418,43.9288667 L13.156903,44.1508667 L13.3169776,42.9545333 L14.0693284,43.0655333 L13.895709,44.2631 L15.6811567,44.5208667 L15.8670896,43.1518667 L16.6428358,43.2752" id="Fill-34" fill="#58595B" sketch:type="MSShapeGroup"></path>
                <path d="M15.6195896,46.6545333 C15.9520522,47.0492 16.0764179,47.5672 15.9779104,48.2085333 C15.9397388,48.4922 15.8670896,48.7635333 15.8178358,48.9362 L10.3001866,48.1468667 C10.2644776,47.9002 10.276791,47.5795333 10.3260448,47.2342 C10.398694,46.6422 10.6203358,46.2475333 10.9786567,46.0008667 C11.4453358,45.6432 12.21,45.4964333 13.3428358,45.6555333 C14.5483209,45.8282 15.2514179,46.2117667 15.6195896,46.6545333 L15.6195896,46.6545333 Z M15.2883582,47.8508667 C15.3622388,47.3069667 14.9177239,46.7297667 13.2073881,46.4806333 C11.9378731,46.2968667 11.1510448,46.5201 11.0525373,47.2083 C11.0389925,47.2835333 11.0389925,47.3698667 11.0525373,47.4451 L15.2378731,48.0482 C15.2637313,47.9742 15.2760448,47.9002 15.2883582,47.8508667 L15.2883582,47.8508667 Z" id="Fill-35" fill="#58595B" sketch:type="MSShapeGroup"></path>
                <path d="M15.7427239,49.5282 L15.631903,50.3052 L14.1308955,50.3668667 L13.9942164,51.3658667 L15.4114925,51.8468667 L15.3117537,52.6238667 L9.8458209,50.6875333 L9.98126866,49.7625333 L15.7427239,49.5282 L15.7427239,49.5282 Z M13.3058955,51.1685333 L13.4290299,50.3422 L12.1114925,50.3668667 C11.7285448,50.3792 11.2126119,50.3668667 10.8050373,50.3668667 L10.8050373,50.3903 C11.1879851,50.5025333 11.7051493,50.6505333 12.048694,50.7615333 L13.3058955,51.1685333 L13.3058955,51.1685333 Z" id="Fill-36" fill="#58595B" sketch:type="MSShapeGroup"></path>
                <path d="M15.2514179,53.0062 L15.1529104,53.7227667 L12.9598881,53.5131 C12.3331343,53.4502 11.5573881,53.3638667 10.9417164,53.2775333 L10.9417164,53.2898667 C11.5438433,53.4872 12.1976866,53.7092 12.7271642,53.9065333 L14.9300373,54.7575333 L14.8561567,55.3125333 L12.5535448,55.4852 C11.9760448,55.5333 11.2495522,55.5727667 10.6080224,55.5727667 L10.6080224,55.5838667 C11.2495522,55.6825333 11.9760448,55.8305333 12.6409701,55.9538667 L14.771194,56.3473 L14.6726866,57.0392 L9.10578358,55.8922 L9.23014925,55.0547667 L11.5697015,54.8932 C12.3208209,54.8451 12.9241791,54.8056333 13.5755597,54.7945333 L13.5755597,54.7822 C12.948806,54.5972 12.3934701,54.3986333 11.679291,54.1532 L9.46287313,53.3515333 L9.58600746,52.4894333 L15.2514179,53.0062" id="Fill-37" fill="#58595B" sketch:type="MSShapeGroup"></path>
                <path d="M12.4193284,21.8645333 L12.3085075,22.6538667 L9.78302239,23.2088667 C9.24246269,23.3322 8.52828358,23.4666333 7.91261194,23.5295333 L7.91261194,23.5418667 C8.56399254,23.6158667 9.36559701,23.6898667 10.5353731,23.8625333 L12.0991791,24.0833 L11.9871269,24.8381 L6.37343284,24.0228667 L6.48425373,23.2458667 L9.0208209,22.6908667 C9.55029851,22.5922 10.3125,22.4195333 10.8801493,22.3319667 L10.8801493,22.3208667 C10.1536567,22.2592 9.27817164,22.1728667 8.26847015,22.0372 L6.69235075,21.8028667 L6.79208955,21.0628667 L12.4193284,21.8645333" id="Fill-38" fill="#58595B" sketch:type="MSShapeGroup"></path>
                <path d="M9.00727612,25.1069667 C11.1251866,25.4153 11.8516791,26.2416333 11.7174627,27.1802 C11.5697015,28.2408667 10.3001866,28.5985333 8.61447761,28.3518667 C6.92630597,28.1175333 5.83041045,27.3405333 5.97817164,26.2675333 C6.13824627,25.1464333 7.49395522,24.8862 9.00727612,25.1069667 L9.00727612,25.1069667 Z M10.9527985,27.0198667 C11.0266791,26.4784333 10.0551493,26.1565333 8.92231343,25.9962 C7.90029851,25.8482 6.82779851,25.8617667 6.75391791,26.4278667 C6.68126866,26.9569667 7.56660448,27.3158667 8.74869403,27.4749667 C9.96895522,27.6488667 10.8801493,27.5625333 10.9527985,27.0198667 L10.9527985,27.0198667 Z" id="Fill-39" fill="#58595B" sketch:type="MSShapeGroup"></path>
                <path d="M11.3222015,29.4631 L11.2002985,30.3005333 L5.58414179,29.4988667 L5.70850746,28.6478667 L11.3222015,29.4631" id="Fill-40" fill="#58595B" sketch:type="MSShapeGroup"></path>
                <path d="M10.9909701,31.8422 L10.8678358,32.6808667 L6.06559701,31.9889667 L5.92891791,32.9534333 L5.11746269,32.8288667 L5.51149254,30.0662 L6.3241791,30.1895333 L6.1875,31.1515333 L10.9909701,31.8422" id="Fill-41" fill="#58595B" sketch:type="MSShapeGroup"></path>
                <path d="M10.7557836,33.4825333 L10.6338806,34.2977667 L9.13164179,34.3705333 L8.97033582,35.4312 L10.398694,35.9245333 L10.276791,36.7508667 L4.83425373,34.7528667 L4.98078358,33.7662 L10.7557836,33.4825333 L10.7557836,33.4825333 Z M8.29309701,35.2462 L8.41746269,34.3569667 L7.09992537,34.3964333 C6.71697761,34.4075333 6.19981343,34.4075333 5.79347015,34.4075333 L5.79347015,34.4322 C6.17641791,34.5432 6.69235075,34.7047667 7.03712687,34.8145333 L8.29309701,35.2462 L8.29309701,35.2462 Z" id="Fill-42" fill="#58595B" sketch:type="MSShapeGroup"></path>
                <path d="M10.2016791,37.3305333 L10.0908582,38.1198667 L7.56660448,38.6736333 C7.02481343,38.7858667 6.31063433,38.9338667 5.69496269,38.9955333 L5.69496269,39.0078667 C6.34880597,39.0695333 7.1491791,39.1558667 8.31895522,39.3162 L9.88152985,39.5505333 L9.83227612,39.8958667 L9.80764925,39.8958667 L9.75962687,40.2782 L7.1233209,39.8958667 L7.00018657,39.8958667 L4.15578358,39.4888667 L4.26660448,38.7131 L6.79208955,38.1556333 C7.33264925,38.0458667 8.09731343,37.8867667 8.6625,37.7992 L8.6625,37.7881 C7.93600746,37.7128667 7.06175373,37.6388667 6.05328358,37.4908667 L4.47716418,37.2701 L4.58798507,36.5288667 L10.2016791,37.3305333" id="Fill-43" fill="#58595B" sketch:type="MSShapeGroup"></path>
                <path d="M9.62294776,41.2155333 L9.49981343,42.0653 L3.8861194,41.2648667 L4.00925373,40.4138667 L9.62294776,41.2155333" id="Fill-44" fill="#58595B" sketch:type="MSShapeGroup"></path>
                <path d="M9.24246269,42.8435333 C9.30402985,43.0889667 9.34097015,43.5477667 9.29048507,43.9153 C9.20552239,44.4592 8.98264925,44.8797667 8.53936567,45.1881 C8.02343284,45.5445333 7.1861194,45.6802 6.1875,45.5198667 C4.08190299,45.1992 3.44160448,44.0028667 3.59059701,42.9545333 C3.6386194,42.5833 3.76298507,42.3144333 3.87257463,42.1528667 L4.61261194,42.4365333 C4.51410448,42.5598667 4.44022388,42.7572 4.40328358,43.0162 C4.30477612,43.7056333 4.7480597,44.4222 6.3241791,44.6442 C7.84981343,44.8662 8.44208955,44.3852 8.52828358,43.8302 C8.53936567,43.6945333 8.53936567,43.5958667 8.52828358,43.5477667 L6.95216418,43.3122 L6.86597015,43.8918667 L6.13824627,43.7808667 L6.33526119,42.4242 L9.24246269,42.8435333" id="Fill-45" fill="#58595B" sketch:type="MSShapeGroup"></path>
                <path d="M8.90876866,46.1612 L8.7991791,46.9875333 L7.28462687,47.0492 L7.13563433,48.1222 L8.56399254,48.6155333 L8.44208955,49.4295333 L2.9983209,47.4451 L3.13376866,46.4572 L8.90876866,46.1612 L8.90876866,46.1612 Z M6.45962687,47.9236333 L6.58276119,47.0492 L5.26399254,47.0862 C4.88227612,47.0862 4.35279851,47.0862 3.95876866,47.0985333 L3.95876866,47.1232 C4.34048507,47.2342 4.85764925,47.3822 5.20365672,47.4932 L6.45962687,47.9236333 L6.45962687,47.9236333 Z" id="Fill-46" fill="#58595B" sketch:type="MSShapeGroup"></path>
                <path d="M8.39160448,49.8365333 L8.28201493,50.5999667 L6.08899254,50.3903 C5.46100746,50.3422 4.68649254,50.2558667 4.0708209,50.1572 L4.0708209,50.1806333 C4.67294776,50.3792 5.32679104,50.6135333 5.84395522,50.8232 L8.04682836,51.7112 L7.9741791,52.2797667 L5.67156716,52.4894333 C5.07929104,52.5486333 4.36511194,52.5881 3.72481343,52.5992 L3.71373134,52.6115333 C4.35279851,52.7102 5.09283582,52.8569667 5.75776119,52.9815333 L7.87567164,53.3885333 L7.77593284,54.1162 L2.21026119,52.9556333 L2.33462687,52.0701 L4.68649254,51.8727667 C5.43761194,51.8098667 6.04097015,51.7617667 6.69235075,51.7482 L6.69235075,51.7358667 C6.0766791,51.5508667 5.51149254,51.3547667 4.79608209,51.0822 L2.59320896,50.2558667 L2.72742537,49.3432 L8.39160448,49.8365333" id="Fill-47" fill="#58595B" sketch:type="MSShapeGroup"></path>
                <path d="M7.66634328,54.8932 L7.54197761,55.7442 L1.92705224,54.9302 L2.05141791,54.0903 L7.66634328,54.8932" id="Fill-48" fill="#58595B" sketch:type="MSShapeGroup"></path>
                <path d="M164.735261,39.8712 L25.8532836,39.8712" id="Stroke-49" stroke="#58595B" stroke-width="0.25" sketch:type="MSShapeGroup"></path>
            </g>
        </g>
    </g>
</svg>