<?xml version="1.0" encoding="UTF-8" standalone="no"?>
<svg width="1024px" height="71px" viewBox="0 0 1024 71" version="1.1" xmlns="http://www.w3.org/2000/svg" xmlns:xlink="http://www.w3.org/1999/xlink" xmlns:sketch="http://www.bohemiancoding.com/sketch/ns">
    <!-- Generator: Sketch 3.1 (8751) - http://www.bohemiancoding.com/sketch -->
    <title>menuBar@2x</title>
    <desc>Created with Sketch.</desc>
    <defs></defs>
    <g id="Welcome" stroke="none" stroke-width="1" fill="none" fill-rule="evenodd" sketch:type="MSPage">
        <g id="Desktop" sketch:type="MSArtboardGroup" fill="#FFFFFF">
            <g id="menuBar" sketch:type="MSLayerGroup">
                <path d="M314.118639,26.0080345 C313.459188,25.1499138 312.566411,24.7214655 311.436625,24.7214655 C310.35596,24.7214655 309.4902,25.1560345 308.831976,26.0263966 C308.177437,26.8992069 307.85201,28.3412414 307.85201,30.3525 C307.85201,32.3478448 308.174981,33.7800862 308.827064,34.6504483 C309.480375,35.5232586 310.364556,35.9590517 311.484518,35.9590517 C312.636409,35.9590517 313.529185,35.5318276 314.159164,34.6773793 C314.790371,33.822931 315.109658,32.2927586 315.109658,30.0844138 C315.109658,28.2249483 314.77809,26.8661552 314.118639,26.0080345" id="Fill-1" sketch:type="MSShapeGroup"></path>
                <path d="M290.692767,35.9443621 L293.426359,35.9443621 C294.349836,35.9443621 295.003147,35.757069 295.38138,35.384931 C295.758385,35.011569 295.947501,34.5121207 295.947501,33.8829138 C295.947501,33.3002241 295.760841,32.8301552 295.386292,32.4751552 C295.011743,32.1213793 294.354748,31.941431 293.415306,31.941431 L290.692767,31.941431 L290.692767,35.9443621" id="Fill-2" sketch:type="MSShapeGroup"></path>
                <path d="M295.262261,26.27 C295.262261,25.6971034 295.098933,25.2478448 294.769822,24.9222241 C294.441938,24.5990517 293.873361,24.4386897 293.060406,24.4386897 L290.692767,24.4386897 L290.692767,28.1833276 L293.023565,28.1833276 C293.861081,28.1833276 294.441938,28.0205172 294.769822,27.6924483 C295.098933,27.3631552 295.262261,26.8894138 295.262261,26.27" id="Fill-3" sketch:type="MSShapeGroup"></path>
                <path d="M327.473449,39.9889138 L333.850601,39.9889138 L327.473449,29.3425862 L327.473449,39.9889138" id="Fill-4" sketch:type="MSShapeGroup"></path>
                <path d="M352.278397,30.3659655 C352.278397,28.2739138 351.978758,26.8404483 351.377024,26.0680172 C350.780202,25.2968103 349.784271,24.9099828 348.395371,24.9099828 L347.059276,24.9099828 L347.059276,35.7019828 L348.372038,35.7019828 C349.492,35.7019828 350.287762,35.5612069 350.76301,35.2772069 C351.238257,34.994431 351.606665,34.4998793 351.875603,33.7947759 C352.144542,33.0908966 352.278397,31.9475517 352.278397,30.3659655" id="Fill-5" sketch:type="MSShapeGroup"></path>
                <path d="M273.123363,32.6563276 L276.935164,32.6563276 L275.020667,25.5551034 L273.123363,32.6563276" id="Fill-6" sketch:type="MSShapeGroup"></path>
                <path d="M208.138551,39.1981207 C207.592078,39.1222241 207.189285,39.2605517 207.104551,39.7783621 C207.095955,39.8530345 207.098411,39.9240345 207.103323,39.9889138 L207.087359,39.9889138 C207.088587,40.0011552 207.083675,40.0195172 207.086131,40.0293103 L208.972382,40.2998448 L209.003083,40.0929655 C209.007995,40.0562414 208.993259,40.0244138 208.993259,39.9889138 L209.007995,39.9889138 C208.996943,39.5800517 208.659235,39.2740172 208.138551,39.1981207" id="Fill-7" sketch:type="MSShapeGroup"></path>
                <path d="M234.479762,39.9889138 L242.177045,39.9889138 L241.362862,36.928569 L235.273069,36.928569 L234.479762,39.9889138" id="Fill-8" sketch:type="MSShapeGroup"></path>
                <path d="M236.438468,32.6563276 L240.250268,32.6563276 L238.333316,25.5551034 L236.438468,32.6563276" id="Fill-9" sketch:type="MSShapeGroup"></path>
                <path d="M271.16343,39.9889138 L278.861941,39.9889138 L278.047758,36.928569 L271.957964,36.928569 L271.16343,39.9889138" id="Fill-10" sketch:type="MSShapeGroup"></path>
                <path d="M0.0282446556,0.018362069 L0,40.2998448 L197.754342,39.9889138 L195.434596,56.223431 L216.821941,59.2972414 C217.767523,59.4343448 218.84696,59.4049655 220.062708,59.2164483 C220.949344,59.0817931 221.822473,58.6778276 222.677181,58.0045517 C223.53066,57.3349483 224.250285,56.4511207 224.833599,55.3604138 C225.41814,54.2672586 225.859002,52.6771034 226.159869,50.5875 C226.351442,49.2544138 226.391967,47.9727414 226.281444,46.7412586 C226.173378,45.5097759 225.868827,44.3994828 225.375159,43.4103793 C224.879036,42.4249483 224.1852,41.6219138 223.298563,41.0049483 C222.662444,40.5630345 221.847033,40.2263966 220.865838,39.9889138 L220.783561,39.9889138 C220.49129,39.9215862 220.191651,39.8591552 219.872363,39.8077414 L213.444862,20.4369828 L219.049584,20.4369828 L222.957171,34.6504483 L226.810724,20.4369828 L232.253347,20.4369828 L225.877423,39.9889138 L229.017492,39.9889138 L235.474466,20.4369828 L241.324793,20.4369828 L247.779311,39.9889138 L253.064746,39.9889138 C252.529325,39.8089655 252.020922,39.6020862 251.575147,39.3278793 C250.275893,38.526069 249.270138,37.337431 248.555425,35.7546207 C247.840713,34.1754828 247.483356,32.3600862 247.483356,30.3133276 C247.483356,28.1563966 247.875097,26.2810172 248.656124,24.6871897 C249.438378,23.0933621 250.5829,21.8826897 252.088463,21.0563966 C253.266143,20.4173966 254.846615,20.0991207 256.836021,20.0991207 C258.754202,20.0991207 260.188539,20.297431 261.137805,20.6928276 C262.090755,21.0882241 262.87915,21.7002931 263.5079,22.5314828 C264.134195,23.3626724 264.606986,24.415431 264.921361,25.6909828 L259.747677,26.7412931 C259.534,25.9957931 259.174188,25.426569 258.665784,25.0323966 C258.15738,24.6357759 257.506525,24.4386897 256.718131,24.4386897 C255.542907,24.4386897 254.604694,24.9026379 253.907173,25.8329828 C253.208425,26.7633276 252.858437,28.2335172 252.858437,30.246 C252.858437,32.3821207 253.210881,33.9098448 253.919454,34.8255 C254.624342,35.7436034 255.609221,36.2002069 256.871634,36.2002069 C257.470912,36.2002069 258.044401,36.1022759 258.588418,35.9039655 C259.133663,35.7068793 259.756273,35.3702414 260.459933,34.8940517 L260.459933,33.0345862 L256.871634,33.0345862 L256.871634,28.923931 L265.158371,28.923931 L265.158371,37.3447759 C263.572986,38.5762586 262.169349,39.4147931 260.951145,39.8591552 C260.813606,39.9081207 260.66747,39.946069 260.523791,39.9889138 L265.704843,39.9889138 L272.159361,20.4369828 L278.009689,20.4369828 L284.464207,39.9889138 L285.282074,39.9889138 L285.282074,20.4369828 L295.321207,20.4369828 C296.993781,20.4369828 298.279527,20.9082759 299.173532,21.8508621 C300.068765,22.7946724 300.516995,23.9612759 300.516995,25.3543448 C300.516995,26.5233966 300.197708,27.5235172 299.560361,28.3596034 C299.133007,28.9165862 298.509169,29.3560517 297.688846,29.6792241 C298.936523,30.0207586 299.852632,30.6071207 300.439629,31.4370862 C301.030311,32.2695 301.322582,33.3136897 301.322582,34.5708793 C301.322582,35.5954828 301.113817,36.5148103 300.693831,37.3325345 C300.27753,38.1490345 299.706496,38.7966034 298.979504,39.2727931 C298.528817,39.5690345 297.852173,39.7844828 296.943432,39.9203621 C296.766596,39.946069 296.613093,39.9668793 296.457133,39.9889138 L308.05709,39.9889138 C307.613772,39.8407931 307.188874,39.6730862 306.803273,39.4613103 C305.519983,38.7513103 304.481071,37.63 303.685309,36.0924828 C302.88709,34.5574138 302.487981,32.6355172 302.487981,30.325569 C302.487981,27.1011897 303.277603,24.5904828 304.858076,22.7946724 C306.433637,20.9988621 308.633036,20.0991207 311.448905,20.0991207 C314.339684,20.0991207 316.564872,20.9817241 318.126924,22.746931 C319.687748,24.5121379 320.470002,26.9848966 320.470002,30.1639828 C320.470002,32.4727069 320.12861,34.3664483 319.445827,35.8439828 C318.761815,37.3215172 317.776936,38.4709828 316.486278,39.2923793 C316.044188,39.573931 315.560344,39.8028448 315.042116,39.9889138 L322.429936,39.9889138 L322.429936,20.4369828 L327.437836,20.4369828 L333.970948,31.3636379 L333.970948,20.4369828 L339.026741,20.4369828 L339.026741,39.9889138 L341.696475,39.9889138 L341.696475,20.4369828 L349.661468,20.4369828 C351.233344,20.4369828 352.501898,20.6793621 353.468356,21.1641207 C354.434815,21.6488793 355.234261,22.3454138 355.86424,23.2537241 C356.495447,24.1595862 356.955957,25.2160172 357.238404,26.4193448 C357.522078,27.6214483 357.665758,28.8982241 357.665758,30.246 C357.665758,32.3551897 357.452081,33.9930862 357.032095,35.1560172 C356.608425,36.3189483 356.022656,37.2945862 355.274786,38.0804828 C354.523233,38.8663793 353.717646,39.3890862 352.859254,39.6498276 C352.379095,39.7967241 351.922268,39.9032241 351.481406,39.9889138 L1033.86492,39.7844828 L1033.86492,0.018362069 L0.0282446556,0.018362069 L0.0282446556,0.018362069 Z M209.580257,34.2011897 L209.750952,33.015 L210.491454,33.1202759 L210.321986,34.3064655 L212.098943,34.5610862 L212.292971,33.2108621 L213.067857,33.3222586 L212.758394,35.4657241 L207.1549,34.6626897 L207.453311,32.6085862 L208.225741,32.7199828 L208.042765,33.9808448 L209.580257,34.2011897 L209.580257,34.2011897 Z M209.179919,36.9885517 L209.350615,35.8023621 L210.091116,35.9076379 L209.917964,37.0938276 L211.698606,37.3472241 L211.892634,35.9994483 L212.665064,36.1108448 L212.355601,38.2543103 L206.754563,37.4512759 L207.050518,35.3971724 L207.82172,35.5061207 L207.642428,36.769431 L209.179919,36.9885517 L209.179919,36.9885517 Z M201.471584,23.456931 L203.993955,22.9109655 C204.526919,22.8032414 205.287069,22.640431 205.850734,22.5522931 L205.85319,22.5363793 C205.133565,22.4739483 204.262893,22.3968276 203.25591,22.2536034 L201.677893,22.0271379 L201.783504,21.2889828 L207.38577,22.089569 L207.272791,22.8681207 L204.759017,23.4226552 C204.217456,23.5377241 203.510112,23.6760517 202.898553,23.740931 L202.896097,23.758069 C203.548181,23.8192759 204.341487,23.900069 205.508114,24.0665517 L207.068938,24.290569 L206.960872,25.0372931 L201.358606,24.2342586 L201.471584,23.456931 L201.471584,23.456931 Z M203.986587,25.3066034 C206.097568,25.6101897 206.829473,26.4279138 206.69439,27.361931 C206.540886,28.4146897 205.279701,28.7709138 203.591162,28.5297586 C201.912447,28.2898276 200.818273,27.5247414 200.969321,26.4634138 C201.130192,25.3482241 202.48348,25.0923793 203.986587,25.3066034 L203.986587,25.3066034 Z M200.699154,28.8211034 L206.30142,29.6229138 L206.178618,30.4638966 L200.576352,29.6633103 L200.699154,28.8211034 L200.699154,28.8211034 Z M200.497758,30.2276379 L201.310713,30.3451552 L201.173173,31.302431 L205.961257,31.9867241 L205.838454,32.828931 L201.051599,32.1421897 L200.914059,33.0921207 L200.101105,32.9758276 L200.497758,30.2276379 L200.497758,30.2276379 Z M199.967249,33.9037241 L205.725475,33.6136034 L205.608812,34.4301034 L204.104477,34.5035517 L203.95343,35.5563103 L205.375487,36.0484138 L205.257596,36.8661379 L199.826026,34.8854828 L199.967249,33.9037241 L199.967249,33.9037241 Z M199.149382,39.5825 L199.259905,38.8039483 L201.783504,38.2592069 C202.31524,38.1527069 203.077846,37.9874483 203.641511,37.8993103 L203.643967,37.8858448 C202.921886,37.8209655 202.051214,37.745069 201.046686,37.6006207 L199.466214,37.3753793 L199.57428,36.636 L205.176546,37.4378103 L205.063568,38.2151379 L202.548565,38.7696724 C202.005777,38.8847414 201.300888,39.0242931 200.68933,39.0891724 L200.686874,39.1050862 C201.338957,39.1675172 202.133492,39.2483103 203.296435,39.4147931 L204.857259,39.6375862 L204.808138,39.9889138 L204.789717,39.9889138 L204.735684,40.3647241 L202.110159,39.9889138 L201.988584,39.9889138 L199.149382,39.5825 L199.149382,39.5825 Z M201.310713,44.7018448 C202.833468,44.9172931 203.426606,44.4435517 203.5052,43.8914655 C203.527304,43.7494655 203.524848,43.6539828 203.5052,43.6037931 L201.934551,43.3797759 L201.853501,43.9441034 L201.13142,43.8412759 L201.322993,42.4971724 L204.215,42.910931 C204.282542,43.1533103 204.32061,43.6074655 204.267805,43.9698103 C204.189211,44.5121034 203.96571,44.9356552 203.524848,45.2343448 C203.00662,45.5856724 202.174017,45.7227759 201.176857,45.5722069 C199.078157,45.253931 198.43467,44.0555 198.584489,43.0186552 C198.636067,42.6501897 198.753957,42.3772069 198.866936,42.2254138 L199.608665,42.502069 C199.506739,42.6293793 199.428145,42.8191207 199.390076,43.0859828 C199.291834,43.7690517 199.732696,44.4741552 201.310713,44.7018448 L201.310713,44.7018448 Z M198.87676,41.3379138 L198.998335,40.4981552 L204.599373,41.2987414 L204.479026,42.1409483 L198.87676,41.3379138 L198.87676,41.3379138 Z M202.525233,55.7141897 L196.921739,54.909931 L197.044542,54.0713966 L202.646808,54.8719828 L202.525233,55.7141897 L202.525233,55.7141897 Z M203.258366,50.614431 L201.083527,50.4075517 C200.447409,50.3487931 199.677435,50.2692241 199.06342,50.1737414 L199.060964,50.1982241 C199.660242,50.3879655 200.31601,50.6254483 200.835466,50.8286552 L203.036093,51.7051379 L202.951359,52.2780345 L200.658629,52.4787931 C200.070404,52.54 199.353235,52.5803966 198.715888,52.5865172 L198.713432,52.6097759 C199.344639,52.708931 200.077772,52.8460345 200.739679,52.9721207 L202.862941,53.3711897 L202.75733,54.102 L197.204185,52.9476379 L197.3319,52.0601379 L199.677435,51.874069 C200.424076,51.8116379 201.033178,51.7626724 201.680349,51.7516552 L201.680349,51.7357414 C201.063879,51.5508966 200.497758,51.3501379 199.790413,51.0869483 L197.591014,50.2667759 L197.719957,49.3645862 L203.368888,49.8530172 L203.258366,50.614431 L203.258366,50.614431 Z M203.776594,47.0166897 L202.272259,47.0901379 L202.121211,48.1441207 L203.543268,48.6362241 L203.426606,49.4515 L197.993808,47.472069 L198.135031,46.4915345 L203.894485,46.2001897 L203.776594,47.0166897 L203.776594,47.0166897 Z M210.110765,53.7102759 L207.935926,53.4972759 C207.299808,53.436069 206.53229,53.3565 205.918276,53.2610172 L205.913363,53.2830517 C206.516325,53.4691207 207.170865,53.6980345 207.692777,53.8938966 L209.894632,54.7385517 L209.818494,55.2808448 L207.528221,55.4522241 C206.942451,55.5048621 206.225283,55.5379138 205.590392,55.5379138 L205.587936,55.5611724 C206.217914,55.6591034 206.952276,55.7949828 207.611727,55.9186207 L209.737444,56.3127931 L209.637974,57.0019828 L204.083601,55.8672069 L204.203948,55.0298966 L206.542114,54.8719828 C207.287527,54.8193448 207.895401,54.7789483 208.542572,54.7728276 L208.545029,54.7569138 C207.923646,54.5781897 207.359981,54.3847759 206.650181,54.1313793 L204.448325,53.3381379 L204.571128,52.4861379 L210.216375,52.9904828 L210.110765,53.7102759 L210.110765,53.7102759 Z M210.600748,50.3169655 L209.098869,50.3720517 L208.957646,51.3672759 L210.379703,51.8434655 L210.269181,52.6146724 L204.827786,50.7001207 L204.961641,49.7734483 L210.711271,49.5445345 L210.600748,50.3169655 L210.600748,50.3169655 Z M210.940912,48.2371552 C210.902843,48.5138103 210.83039,48.7831207 210.78004,48.9569483 L205.276017,48.1710517 C205.241632,47.9298966 205.246544,47.6067241 205.296893,47.2639655 C205.381627,46.6861724 205.596532,46.292 205.947748,46.0398276 C206.414399,45.6909483 207.181917,45.5428276 208.305563,45.7031897 C209.509031,45.8782414 210.218831,46.2503793 210.578644,46.6959655 C210.911439,47.0840172 211.034242,47.5932586 210.940912,48.2371552 L210.940912,48.2371552 Z M211.298268,45.4755 L205.696002,44.6736897 L205.990729,42.6195862 L206.763159,42.7309828 L206.582639,43.9918448 L208.120131,44.2109655 L208.290827,43.0247759 L209.031328,43.1300517 L208.859404,44.3162414 L210.638817,44.5720862 L210.832846,43.2218621 L211.605276,43.3320345 L211.298268,45.4755 L211.298268,45.4755 Z M220.810577,49.9460517 C220.585848,51.5105 220.287437,52.6232414 219.922713,53.2818276 C219.559216,53.9428621 219.122038,54.3798793 218.611178,54.5928793 C218.102774,54.8071034 217.294732,54.8328103 216.184594,54.6748966 L214.884112,54.4900517 L216.421603,43.807 L217.742962,43.9955172 C219.119582,44.1926034 220.047971,44.7153103 220.533043,45.5648621 C221.016886,46.4131897 221.10776,47.8735862 220.810577,49.9460517 L220.810577,49.9460517 Z M211.98228,40.7295172 L211.866846,41.5166379 L206.348086,40.7282931 C206.319841,40.5079483 206.330893,40.248431 206.356682,39.9889138 L206.375102,39.9889138 C206.38247,39.9166897 206.383698,39.8456897 206.394751,39.7746897 C206.467204,39.263 206.630532,38.8467931 206.98052,38.5946207 C207.318228,38.3632586 207.707513,38.313069 208.172936,38.3791724 C208.820107,38.4722069 209.287986,38.8272069 209.47219,39.3682759 L209.489382,39.3695 C209.680955,39.041431 210.081292,38.9104483 210.760392,38.9092241 C211.457912,38.8945345 212.074382,38.8614828 212.275779,38.8076207 L212.159116,39.6314655 C211.990876,39.6743103 211.427211,39.7000172 210.757936,39.6951207 C210.200411,39.6902241 209.911824,39.7771379 209.780425,39.9889138 L209.757093,39.9889138 C209.72148,40.052569 209.693235,40.123569 209.682183,40.2117069 L209.65271,40.3977759 L211.98228,40.7295172 L211.98228,40.7295172 Z M213.465739,30.5508103 L213.158732,32.6783621 L207.556466,31.8765517 L207.670672,31.0833103 L212.526297,31.7773966 L212.717869,30.4430862 L213.465739,30.5508103 L213.465739,30.5508103 Z" id="Fill-11" sketch:type="MSShapeGroup"></path>
                <path d="M200.78266,34.5415 L200.780204,34.5647586 C201.162121,34.6761552 201.681577,34.8303966 202.022969,34.9417931 L203.276786,35.3628966 L203.402045,34.4913103 L202.083143,34.5280345 C201.708594,34.5378276 201.182998,34.532931 200.78266,34.5415" id="Fill-12" sketch:type="MSShapeGroup"></path>
                <path d="M203.725017,27.6593966 C204.946905,27.8344483 205.850734,27.7389655 205.929328,27.2052414 C206.006694,26.6629483 205.025499,26.3458966 203.903081,26.1855345 C202.888729,26.0410862 201.819116,26.048431 201.736838,26.6139828 C201.663157,27.1391379 202.552249,27.4916897 203.725017,27.6593966" id="Fill-13" sketch:type="MSShapeGroup"></path>
                <path d="M208.278546,51.1787586 L208.396437,50.3561379 L207.078762,50.3793966 C206.705442,50.3867414 206.179846,50.3793966 205.781964,50.3818448 L205.777052,50.4051034 C206.160197,50.5140517 206.680881,50.6633966 207.022273,50.7723448 L208.278546,51.1787586" id="Fill-14" sketch:type="MSShapeGroup"></path>
                <path d="M271.078696,47.1011552 L261.805853,65.7288621 L267.226371,66.5037414 L268.529309,63.3956552 L274.554017,64.2586724 L274.949442,67.6091379 L280.508727,68.4023793 L276.86885,47.9286724 L271.078696,47.1011552 L271.078696,47.1011552 Z M270.289074,59.3339655 L273.177397,52.5730517 L274.061577,59.8725862 L270.289074,59.3339655 L270.289074,59.3339655 Z" id="Fill-15" sketch:type="MSShapeGroup"></path>
                <path d="M260.958513,57.155 L261.534458,53.1679828 L253.272283,51.9879138 L253.720513,48.8798276 L262.626176,50.152931 L263.225454,45.9786207 L248.999971,43.9441034 L246.186558,63.4960345 L260.671154,65.5672759 L261.307273,61.1383448 L252.144952,59.8285172 L252.698793,55.974931 L260.958513,57.155" id="Fill-16" sketch:type="MSShapeGroup"></path>
                <path d="M242.955615,43.5707414 C242.132836,43.1263793 240.902352,42.7872931 239.262933,42.5522586 L230.416216,41.2877241 L227.602803,60.8396552 L232.934903,61.6022931 L234.076969,53.667431 L234.544848,53.7335345 C235.028691,53.8033103 235.441309,54.0163103 235.780245,54.3725345 C236.027078,54.6455172 236.276368,55.1927069 236.523202,56.0177759 L238.501556,62.3979828 L244.500475,63.2548793 L242.744394,57.2223276 C242.660888,56.9187414 242.471772,56.4792759 242.177045,55.9002586 C241.878634,55.3224655 241.646537,54.9393103 241.473385,54.7520172 C241.219183,54.4704655 240.793057,54.164431 240.195007,53.8351379 C241.01533,53.7408793 241.672325,53.5743966 242.172133,53.3258966 C242.953159,52.9402931 243.604014,52.3808621 244.124698,51.6525 C244.644154,50.9253621 244.980634,50.0170517 245.136594,48.9324655 C245.315886,47.6875172 245.202907,46.5955862 244.795202,45.6505517 C244.389952,44.7091897 243.775938,44.0138793 242.955615,43.5707414 L242.955615,43.5707414 Z M239.736952,48.6509138 C239.674323,49.0769138 239.509767,49.4392586 239.238373,49.7355 C238.969435,50.0329655 238.652603,50.197 238.291563,50.2263793 C237.569482,50.3047241 237.086867,50.3267586 236.844945,50.2912586 L234.607477,49.9717586 L235.179739,45.9969828 L237.511765,46.3311724 C238.480679,46.4695 239.11557,46.7339138 239.417665,47.1207414 C239.720988,47.5100172 239.826599,48.0192586 239.736952,48.6509138 L239.736952,48.6509138 Z" id="Fill-17" sketch:type="MSShapeGroup"></path>
                <path d="M208.177848,46.5184655 C206.906838,46.3372931 206.12704,46.5588621 206.028798,47.2407069 C206.016518,47.3215 206.014062,47.4059655 206.02143,47.4732931 L210.201639,48.0731207 C210.228656,48.0082414 210.240936,47.933569 210.247076,47.880931 C210.324442,47.3410862 209.88358,46.762069 208.177848,46.5184655" id="Fill-18" sketch:type="MSShapeGroup"></path>
                <path d="M201.445796,47.9507069 L201.572283,47.0791207 L200.250924,47.1146207 C199.876375,47.1256379 199.352007,47.1219655 198.950442,47.1280862 L198.947986,47.152569 C199.329903,47.2627414 199.850587,47.4169828 200.190751,47.5296034 L201.445796,47.9507069" id="Fill-19" sketch:type="MSShapeGroup"></path>
                <path d="M292.911815,62.3624828 L291.93062,50.0807069 L284.949278,49.0842586 L282.138321,68.6361897 L286.484314,69.2580517 L288.628451,54.3468276 L289.829463,69.7366897 L293.762838,70.298569 L299.258266,55.8672069 L297.116584,70.7551724 L301.553451,70.7551724 L304.273534,51.8471379 L297.295876,50.8482414 L292.911815,62.3624828" id="Fill-20" sketch:type="MSShapeGroup"></path>
            </g>
        </g>
    </g>
</svg>