<?xml version="1.0" encoding="UTF-8" standalone="no"?>
<svg width="662px" height="146px" viewBox="0 0 662 146" version="1.1" xmlns="http://www.w3.org/2000/svg" xmlns:xlink="http://www.w3.org/1999/xlink" xmlns:sketch="http://www.bohemiancoding.com/sketch/ns">
    <!-- Generator: Sketch 3.1 (8751) - http://www.bohemiancoding.com/sketch -->
    <title>Imagination</title>
    <desc>Created with Sketch.</desc>
    <defs></defs>
    <g id="Welcome" stroke="none" stroke-width="1" fill="none" fill-rule="evenodd" sketch:type="MSPage">
        <g id="Desktop" sketch:type="MSArtboardGroup" transform="translate(-180.000000, -145.000000)">
            <g id="Imagination" sketch:type="MSLayerGroup" transform="translate(180.000000, 146.000000)">
                <path d="M625.768209,144.478526 L11.3257647,103.567789 L18.2269108,-0.350912281 L632.668076,40.5585439 L625.768209,144.478526 L69.421875,19.2265625" id="Fill-1" fill="#84BF41" sketch:type="MSShapeGroup"></path>
                <path d="M0.0709104163,52.3846235 L11.7992406,52.3846235 L11.7992406,90.2562801 L0.0709104163,90.2562801 L0.0709104163,52.3846235 Z M19.5750719,62.8212874 L29.3917359,62.8212874 L29.3917359,66.825453 C30.8039648,65.1548896 32.2290891,63.9665684 33.6671514,63.260454 C35.1052138,62.5543395 36.8403349,62.2012876 38.8725667,62.2012876 C41.0597993,62.2012876 42.7906149,62.5887836 44.0650653,63.3637873 C45.3395158,64.138791 46.3814496,65.292668 47.1908978,66.825453 C48.844239,65.0343334 50.351168,63.8158737 51.71173,63.1700373 C53.072292,62.5242009 54.7514414,62.2012876 56.7492286,62.2012876 C59.6942426,62.2012876 61.9933856,63.0753064 63.6467268,64.8233702 C65.3000679,66.5714341 66.1267261,69.3054338 66.1267261,73.0254514 L66.1267261,90.2562801 L55.5867289,90.2562801 L55.5867289,74.6271176 C55.5867289,73.3871117 55.3456203,72.4657323 54.8633958,71.8629517 C54.1572813,70.915725 53.278957,70.4421187 52.2283965,70.4421187 C50.9883906,70.4421187 49.989512,70.8898919 49.2317306,71.7854517 C48.4739493,72.6810115 48.0950643,74.1190523 48.0950643,76.0996172 L48.0950643,90.2562801 L37.5550671,90.2562801 L37.5550671,75.1437841 C37.5550671,73.9382229 37.4861789,73.1201757 37.3484005,72.6896181 C37.1245105,72.000726 36.7370145,71.445315 36.1859008,71.0233686 C35.6347871,70.6014221 34.9889604,70.3904521 34.2484013,70.3904521 C33.04284,70.3904521 32.0525724,70.8468363 31.2775688,71.7596184 C30.5025651,72.6724005 30.1150691,74.1707184 30.1150691,76.2546172 L30.1150691,90.2562801 L19.5750719,90.2562801 L19.5750719,62.8212874 Z M81.9883885,71.7079517 L71.9392246,70.6487853 C72.3181152,68.8921104 72.8649152,67.5100412 73.5796408,66.5025364 C74.2943664,65.4950317 75.3233836,64.6210129 76.6667233,63.8804538 C77.6311723,63.3465624 78.9572698,62.9332333 80.6450556,62.6404541 C82.3328413,62.347675 84.1583782,62.2012876 86.1217208,62.2012876 C89.2734024,62.2012876 91.805043,62.3778136 93.7167187,62.7308708 C95.6283945,63.083928 97.2214337,63.8201705 98.4958841,64.9396202 C99.3914439,65.7146239 100.097548,66.8125293 100.614217,68.2333693 C101.130886,69.6542094 101.389217,71.0104455 101.389217,72.3021182 L101.389217,84.4179483 C101.389217,85.7096211 101.471021,86.7214163 101.634633,87.4533642 C101.798245,88.1853121 102.155603,89.1196081 102.706716,90.2562801 L92.8383857,90.2562801 C92.4422727,89.5501657 92.183942,89.0119767 92.0633859,88.6416972 C91.9428297,88.2714177 91.8222754,87.6901736 91.7017193,86.8979477 C90.323935,88.2240651 88.9547824,89.1712776 87.5942204,89.7396136 C85.7342116,90.4973949 83.5728449,90.8762799 81.1100554,90.8762799 C77.8378177,90.8762799 75.3535377,90.1185099 73.6571408,88.6029472 C71.9607439,87.0873845 71.1125581,85.2187926 71.1125581,82.9971154 C71.1125581,80.9132166 71.7239407,79.1996231 72.9467243,77.8562834 C74.1695079,76.5129437 76.4255958,75.5140651 79.7150558,74.8596175 C83.6589634,74.0673916 86.2164371,73.5119806 87.3875538,73.193368 C88.5586704,72.8747554 89.7986577,72.4571208 91.1075528,71.9404517 C91.1075528,70.6487789 90.8406111,69.7446215 90.3067197,69.2279524 C89.7728282,68.7112833 88.8342268,68.4529526 87.4908871,68.4529526 C85.7686567,68.4529526 84.4770033,68.7285053 83.6158881,69.279619 C82.9442183,69.7101766 82.4017238,70.5196128 81.9883885,71.7079517 L81.9883885,71.7079517 Z M91.1075528,77.2362836 C89.6608793,77.7529527 88.1539503,78.2093369 86.5867207,78.6054499 C84.451155,79.1737859 83.0992244,79.7335024 82.5308884,80.2846161 C81.9453301,80.8529521 81.6525553,81.4987788 81.6525553,82.2221156 C81.6525553,83.0487862 81.9410246,83.7247514 82.5179717,84.2500317 C83.0949189,84.775312 83.9431047,85.0379482 85.0625544,85.0379482 C86.233671,85.0379482 87.3229654,84.7537844 88.3304702,84.1854484 C89.337975,83.6171124 90.0526898,82.923925 90.4746363,82.1058656 C90.8965827,81.2878062 91.1075528,80.2243449 91.1075528,78.9154498 L91.1075528,77.2362836 Z M128.305957,62.8212874 L138.148454,62.8212874 L138.148454,88.7321138 L138.174287,89.9462802 C138.174287,91.6685106 137.808319,93.3089104 137.076371,94.8675289 C136.344423,96.4261474 135.371378,97.6876622 134.157205,98.6521112 C132.943033,99.6165602 131.40166,100.314053 129.53304,100.744611 C127.66442,101.175168 125.524581,101.390444 123.113458,101.390444 C117.602321,101.390444 113.817776,100.563786 111.759711,98.9104445 C109.701646,97.2571033 108.672629,95.0440705 108.672629,92.2712796 C108.672629,91.9268335 108.689851,91.4618383 108.724295,90.8762799 L118.928459,92.0387796 C119.186794,92.9860063 119.582901,93.6404441 120.116792,94.0021124 C120.891796,94.5360039 121.864842,94.8029456 123.035958,94.8029456 C124.551521,94.8029456 125.68387,94.3982275 126.433041,93.5887792 C127.182211,92.7793309 127.55679,91.3671232 127.55679,89.3521137 L127.55679,85.1929481 C126.523452,86.4157317 125.490129,87.302667 124.456791,87.8537807 C122.837895,88.7148959 121.089857,89.1454471 119.212626,89.1454471 C115.544275,89.1454471 112.582083,87.5437968 110.325962,84.3404484 C108.724287,82.0671043 107.923462,79.0618573 107.923462,75.3246174 C107.923462,71.0534861 108.956785,67.7985195 111.023461,65.55962 C113.090138,63.3207205 115.793999,62.2012876 119.135126,62.2012876 C121.270692,62.2012876 123.031646,62.5629505 124.418041,63.2862873 C125.804437,64.0096241 127.100395,65.2065562 128.305957,66.8771197 L128.305957,62.8212874 Z M118.411793,76.1254505 C118.411793,78.1060155 118.833733,79.5741948 119.677626,80.5300327 C120.521519,81.4858706 121.632341,81.9637823 123.010125,81.9637823 C124.31902,81.9637823 125.416925,81.4686485 126.303874,80.478366 C127.190823,79.4880836 127.63429,77.9940711 127.63429,75.9962839 C127.63429,73.9984967 127.169295,72.4700401 126.239291,71.4108685 C125.309286,70.3516968 124.172631,69.8221189 122.829292,69.8221189 C121.485952,69.8221189 120.41388,70.3086417 119.613042,71.2817018 C118.812205,72.254762 118.411793,73.8693288 118.411793,76.1254505 L118.411793,76.1254505 Z M144.890952,52.3846235 L155.405116,52.3846235 L155.405116,59.540455 L144.890952,59.540455 L144.890952,52.3846235 Z M144.890952,62.8212874 L155.405116,62.8212874 L155.405116,90.2562801 L144.890952,90.2562801 L144.890952,62.8212874 Z M162.121781,62.8212874 L171.912612,62.8212874 L171.912612,67.2904529 C173.376508,65.4648887 174.857603,64.1603188 176.355944,63.3767039 C177.854284,62.5930891 179.679821,62.2012876 181.832609,62.2012876 C184.743178,62.2012876 187.020794,63.0666954 188.665524,64.7975369 C190.310254,66.5283784 191.132607,69.202101 191.132607,72.8187848 L191.132607,90.2562801 L180.566776,90.2562801 L180.566776,75.1696175 C180.566776,73.4473871 180.248168,72.2289274 179.610943,71.5142018 C178.973718,70.7994762 178.078171,70.4421187 176.924277,70.4421187 C175.649827,70.4421187 174.616504,70.924336 173.824278,71.888785 C173.032052,72.853234 172.635945,74.5840496 172.635945,77.0812836 L172.635945,90.2562801 L162.121781,90.2562801 L162.121781,62.8212874 Z M206.994269,71.7079517 L196.945105,70.6487853 C197.323996,68.8921104 197.870796,67.5100412 198.585521,66.5025364 C199.300247,65.4950317 200.329264,64.6210129 201.672604,63.8804538 C202.637053,63.3465624 203.96315,62.9332333 205.650936,62.6404541 C207.338722,62.347675 209.164259,62.2012876 211.127601,62.2012876 C214.279283,62.2012876 216.810924,62.3778136 218.722599,62.7308708 C220.634275,63.083928 222.227314,63.8201705 223.501765,64.9396202 C224.397324,65.7146239 225.103428,66.8125293 225.620097,68.2333693 C226.136767,69.6542094 226.395097,71.0104455 226.395097,72.3021182 L226.395097,84.4179483 C226.395097,85.7096211 226.476902,86.7214163 226.640514,87.4533642 C226.804126,88.1853121 227.161483,89.1196081 227.712597,90.2562801 L217.844266,90.2562801 C217.448153,89.5501657 217.189823,89.0119767 217.069266,88.6416972 C216.94871,88.2714177 216.828156,87.6901736 216.7076,86.8979477 C215.329816,88.2240651 213.960663,89.1712776 212.600101,89.7396136 C210.740092,90.4973949 208.578725,90.8762799 206.115936,90.8762799 C202.843698,90.8762799 200.359418,90.1185099 198.663021,88.6029472 C196.966624,87.0873845 196.118439,85.2187926 196.118439,82.9971154 C196.118439,80.9132166 196.729821,79.1996231 197.952605,77.8562834 C199.175388,76.5129437 201.431476,75.5140651 204.720936,74.8596175 C208.664844,74.0673916 211.222318,73.5119806 212.393434,73.193368 C213.564551,72.8747554 214.804538,72.4571208 216.113433,71.9404517 C216.113433,70.6487789 215.846492,69.7446215 215.3126,69.2279524 C214.778709,68.7112833 213.840107,68.4529526 212.496768,68.4529526 C210.774537,68.4529526 209.482884,68.7285053 208.621769,69.279619 C207.950099,69.7101766 207.407604,70.5196128 206.994269,71.7079517 L206.994269,71.7079517 Z M216.113433,77.2362836 C214.66676,77.7529527 213.159831,78.2093369 211.592601,78.6054499 C209.457036,79.1737859 208.105105,79.7335024 207.536769,80.2846161 C206.951211,80.8529521 206.658436,81.4987788 206.658436,82.2221156 C206.658436,83.0487862 206.946905,83.7247514 207.523852,84.2500317 C208.100799,84.775312 208.948985,85.0379482 210.068435,85.0379482 C211.239552,85.0379482 212.328846,84.7537844 213.336351,84.1854484 C214.343855,83.6171124 215.05857,82.923925 215.480517,82.1058656 C215.902463,81.2878062 216.113433,80.2243449 216.113433,78.9154498 L216.113433,77.2362836 Z M243.766725,52.3846235 L243.766725,62.8212874 L249.553391,62.8212874 L249.553391,70.4937854 L243.766725,70.4937854 L243.766725,80.2329494 C243.766725,81.4040661 243.878669,82.1790581 244.102559,82.5579488 C244.447005,83.1435072 245.049776,83.4362819 245.910892,83.4362819 C246.685895,83.4362819 247.770884,83.2123953 249.165891,82.7646154 L249.94089,90.0237802 C247.340323,90.5921162 244.912014,90.8762799 242.655892,90.8762799 C240.038102,90.8762799 238.109233,90.5404501 236.869227,89.8687802 C235.629221,89.1971104 234.712148,88.1767042 234.117978,86.807531 C233.523809,85.4383579 233.226728,83.2210195 233.226728,80.1554495 L233.226728,70.4937854 L229.351729,70.4937854 L229.351729,62.8212874 L233.226728,62.8212874 L233.226728,57.7837888 L243.766725,52.3846235 Z M254.952556,52.3846235 L265.46672,52.3846235 L265.46672,59.540455 L254.952556,59.540455 L254.952556,52.3846235 Z M254.952556,62.8212874 L265.46672,62.8212874 L265.46672,90.2562801 L254.952556,90.2562801 L254.952556,62.8212874 Z M270.891718,76.6162837 C270.891718,72.4312639 272.303926,68.9825493 275.128384,66.2700365 C277.952842,63.5575237 281.767525,62.2012876 286.572547,62.2012876 C292.066462,62.2012876 296.216975,63.7943268 299.024211,66.980453 C301.280332,69.5465762 302.408376,72.7068216 302.408376,76.4612838 C302.408376,80.6807482 301.009085,84.1380738 298.210461,86.8333644 C295.411837,89.5286549 291.541182,90.8762799 286.598381,90.8762799 C282.189471,90.8762799 278.624508,89.756847 275.903384,87.5179475 C272.562257,84.7451566 270.891718,81.111305 270.891718,76.6162837 L270.891718,76.6162837 Z M281.431715,76.5904504 C281.431715,79.0360176 281.926849,80.8443323 282.917132,82.015449 C283.907414,83.1865656 285.151707,83.7721152 286.650047,83.7721152 C288.16561,83.7721152 289.409903,83.1951766 290.382963,82.0412823 C291.356023,80.8873879 291.842546,79.0360181 291.842546,76.4871171 C291.842546,74.1104392 291.351718,72.340874 290.370046,71.1783685 C289.388375,70.015863 288.174221,69.434619 286.727547,69.434619 C285.194762,69.434619 283.928942,70.0244741 282.930048,71.2042019 C281.931155,72.3839297 281.431715,74.1793279 281.431715,76.5904504 L281.431715,76.5904504 Z M307.471708,62.8212874 L317.262539,62.8212874 L317.262539,67.2904529 C318.726435,65.4648887 320.207531,64.1603188 321.705871,63.3767039 C323.204212,62.5930891 325.029749,62.2012876 327.182537,62.2012876 C330.093106,62.2012876 332.370721,63.0666954 334.015451,64.7975369 C335.660181,66.5283784 336.482534,69.202101 336.482534,72.8187848 L336.482534,90.2562801 L325.916704,90.2562801 L325.916704,75.1696175 C325.916704,73.4473871 325.598096,72.2289274 324.96087,71.5142018 C324.323645,70.7994762 323.428099,70.4421187 322.274204,70.4421187 C320.999754,70.4421187 319.966431,70.924336 319.174205,71.888785 C318.381979,72.853234 317.985872,74.5840496 317.985872,77.0812836 L317.985872,90.2562801 L307.471708,90.2562801 L307.471708,62.8212874 Z M360.481694,62.8212874 L370.298358,62.8212874 L370.298358,66.825453 C371.710587,65.1548896 373.135711,63.9665684 374.573774,63.260454 C376.011836,62.5543395 377.746957,62.2012876 379.779189,62.2012876 C381.966422,62.2012876 383.697237,62.5887836 384.971688,63.3637873 C386.246138,64.138791 387.288072,65.292668 388.09752,66.825453 C389.750861,65.0343334 391.25779,63.8158737 392.618352,63.1700373 C393.978914,62.5242009 395.658064,62.2012876 397.655851,62.2012876 C400.600865,62.2012876 402.900008,63.0753064 404.553349,64.8233702 C406.20669,66.5714341 407.033349,69.3054338 407.033349,73.0254514 L407.033349,90.2562801 L396.493351,90.2562801 L396.493351,74.6271176 C396.493351,73.3871117 396.252243,72.4657323 395.770018,71.8629517 C395.063904,70.915725 394.185579,70.4421187 393.135019,70.4421187 C391.895013,70.4421187 390.896134,70.8898919 390.138353,71.7854517 C389.380572,72.6810115 389.001687,74.1190523 389.001687,76.0996172 L389.001687,90.2562801 L378.461689,90.2562801 L378.461689,75.1437841 C378.461689,73.9382229 378.392801,73.1201757 378.255023,72.6896181 C378.031133,72.000726 377.643637,71.445315 377.092523,71.0233686 C376.541409,70.6014221 375.895583,70.3904521 375.155024,70.3904521 C373.949462,70.3904521 372.959195,70.8468363 372.184191,71.7596184 C371.409187,72.6724005 371.021691,74.1707184 371.021691,76.2546172 L371.021691,90.2562801 L360.481694,90.2562801 L360.481694,62.8212874 Z M422.895011,71.7079517 L412.845847,70.6487853 C413.224738,68.8921104 413.771538,67.5100412 414.486263,66.5025364 C415.200989,65.4950317 416.230006,64.6210129 417.573346,63.8804538 C418.537795,63.3465624 419.863892,62.9332333 421.551678,62.6404541 C423.239464,62.347675 425.065001,62.2012876 427.028343,62.2012876 C430.180025,62.2012876 432.711665,62.3778136 434.623341,62.7308708 C436.535017,63.083928 438.128056,63.8201705 439.402507,64.9396202 C440.298066,65.7146239 441.00417,66.8125293 441.520839,68.2333693 C442.037508,69.6542094 442.295839,71.0104455 442.295839,72.3021182 L442.295839,84.4179483 C442.295839,85.7096211 442.377644,86.7214163 442.541256,87.4533642 C442.704868,88.1853121 443.062225,89.1196081 443.613339,90.2562801 L433.745008,90.2562801 C433.348895,89.5501657 433.090564,89.0119767 432.970008,88.6416972 C432.849452,88.2714177 432.728898,87.6901736 432.608342,86.8979477 C431.230557,88.2240651 429.861405,89.1712776 428.500843,89.7396136 C426.640834,90.4973949 424.479467,90.8762799 422.016678,90.8762799 C418.74444,90.8762799 416.26016,90.1185099 414.563763,88.6029472 C412.867366,87.0873845 412.019181,85.2187926 412.019181,82.9971154 C412.019181,80.9132166 412.630563,79.1996231 413.853347,77.8562834 C415.07613,76.5129437 417.332218,75.5140651 420.621678,74.8596175 C424.565586,74.0673916 427.12306,73.5119806 428.294176,73.193368 C429.465293,72.8747554 430.70528,72.4571208 432.014175,71.9404517 C432.014175,70.6487789 431.747233,69.7446215 431.213342,69.2279524 C430.679451,68.7112833 429.740849,68.4529526 428.397509,68.4529526 C426.675279,68.4529526 425.383626,68.7285053 424.522511,69.279619 C423.850841,69.7101766 423.308346,70.5196128 422.895011,71.7079517 L422.895011,71.7079517 Z M432.014175,77.2362836 C430.567502,77.7529527 429.060573,78.2093369 427.493343,78.6054499 C425.357777,79.1737859 424.005847,79.7335024 423.437511,80.2846161 C422.851952,80.8529521 422.559178,81.4987788 422.559178,82.2221156 C422.559178,83.0487862 422.847647,83.7247514 423.424594,84.2500317 C424.001541,84.775312 424.849727,85.0379482 425.969177,85.0379482 C427.140293,85.0379482 428.229588,84.7537844 429.237093,84.1854484 C430.244597,83.6171124 430.959312,82.923925 431.381259,82.1058656 C431.803205,81.2878062 432.014175,80.2243449 432.014175,78.9154498 L432.014175,77.2362836 Z M477.48083,52.3846235 L477.48083,90.2562801 L467.638332,90.2562801 L467.638332,86.2004479 C466.260548,87.9226782 465.003339,89.0851663 463.866667,89.6879469 C462.351104,90.4801729 460.663344,90.8762799 458.803335,90.8762799 C455.066095,90.8762799 452.211541,89.4554612 450.239587,86.6137811 C448.267633,83.772101 447.281671,80.3190809 447.281671,76.2546172 C447.281671,71.707929 448.370965,68.2290758 450.549587,65.8179533 C452.728208,63.4068308 455.496652,62.2012876 458.855001,62.2012876 C460.49112,62.2012876 461.976522,62.4768403 463.31125,63.027954 C464.645979,63.5790678 465.829994,64.4057259 466.863333,65.5079534 L466.863333,52.3846235 L477.48083,52.3846235 Z M466.940833,76.4612838 C466.940833,74.3084958 466.484448,72.7025401 465.571666,71.6433684 C464.658884,70.5841967 463.505007,70.0546188 462.11,70.0546188 C460.887217,70.0546188 459.862505,70.5626692 459.035835,71.5787851 C458.209164,72.594901 457.795835,74.2998835 457.795835,76.6937837 C457.795835,78.9326832 458.222081,80.573083 459.074585,81.6150324 C459.927089,82.6569818 460.981939,83.1779487 462.239167,83.1779487 C463.582507,83.1779487 464.70194,82.6526763 465.5975,81.6021157 C466.493059,80.5515552 466.940833,78.8379617 466.940833,76.4612838 L466.940833,76.4612838 Z M514.344987,79.1479497 L493.264992,79.1479497 C493.454438,80.8357355 493.910822,82.0929448 494.634158,82.9196154 C495.650274,84.1079544 496.976372,84.7021149 498.612491,84.7021149 C499.645829,84.7021149 500.627486,84.4437842 501.55749,83.9271151 C502.125826,83.5998914 502.737209,83.0229528 503.391656,82.1962823 L513.75082,83.1521153 C512.166368,85.9076839 510.254721,87.8839136 508.015822,89.0808638 C505.776922,90.2778139 502.565011,90.8762799 498.379991,90.8762799 C494.746085,90.8762799 491.887225,90.3639241 489.803326,89.339197 C487.719428,88.3144699 485.992918,86.6869867 484.623744,84.4566983 C483.254571,82.22641 482.569995,79.6043536 482.569995,76.5904504 C482.569995,72.3020968 483.943453,68.8318546 486.690411,66.1796199 C489.437368,63.5273851 493.230524,62.2012876 498.069991,62.2012876 C501.996676,62.2012876 505.096644,62.7954482 507.369988,63.9837871 C509.643332,65.1721261 511.374148,66.8943306 512.562487,69.1504524 C513.750826,71.4065742 514.344987,74.3429329 514.344987,77.9596167 L514.344987,79.1479497 Z M503.649989,74.1104511 C503.443322,72.0782192 502.896522,70.6229564 502.009573,69.7446189 C501.122625,68.8662814 499.955831,68.4271193 498.509157,68.4271193 C496.838594,68.4271193 495.503885,69.090168 494.504992,70.4162854 C493.867767,71.242956 493.463049,72.4743322 493.290825,74.1104511 L503.649989,74.1104511 Z M536.923314,62.8212874 L546.765811,62.8212874 L546.765811,67.3162862 C547.713038,65.3701659 548.690389,64.0311519 549.697894,63.299204 C550.705399,62.5672561 551.949691,62.2012876 553.430809,62.2012876 C554.980817,62.2012876 556.677188,62.6835049 558.519975,63.6479539 L555.264976,71.1396185 C554.02497,70.6229494 553.043313,70.3646187 552.319976,70.3646187 C550.942192,70.3646187 549.874425,70.9329462 549.116644,72.0696183 C548.031639,73.6712925 547.489144,76.6679284 547.489144,81.0596159 L547.489144,90.2562801 L536.923314,90.2562801 L536.923314,62.8212874 Z M592.282546,79.1479497 L571.202552,79.1479497 C571.391997,80.8357355 571.848381,82.0929448 572.571718,82.9196154 C573.587834,84.1079544 574.913932,84.7021149 576.550051,84.7021149 C577.583389,84.7021149 578.565045,84.4437842 579.49505,83.9271151 C580.063386,83.5998914 580.674768,83.0229528 581.329216,82.1962823 L591.68838,83.1521153 C590.103928,85.9076839 588.192281,87.8839136 585.953381,89.0808638 C583.714482,90.2778139 580.50257,90.8762799 576.317551,90.8762799 C572.683644,90.8762799 569.824785,90.3639241 567.740886,89.339197 C565.656987,88.3144699 563.930477,86.6869867 562.561304,84.4566983 C561.192131,82.22641 560.507555,79.6043536 560.507555,76.5904504 C560.507555,72.3020968 561.881013,68.8318546 564.62797,66.1796199 C567.374928,63.5273851 571.168083,62.2012876 576.007551,62.2012876 C579.934236,62.2012876 583.034204,62.7954482 585.307548,63.9837871 C587.580892,65.1721261 589.311708,66.8943306 590.500047,69.1504524 C591.688386,71.4065742 592.282546,74.3429329 592.282546,77.9596167 L592.282546,79.1479497 Z M581.587549,74.1104511 C581.380882,72.0782192 580.834082,70.6229564 579.947133,69.7446189 C579.060184,68.8662814 577.893391,68.4271193 576.446717,68.4271193 C574.776154,68.4271193 573.441445,69.090168 572.442552,70.4162854 C571.805326,71.242956 571.400608,72.4743322 571.228385,74.1104511 L581.587549,74.1104511 Z M606.697542,71.7079517 L596.648378,70.6487853 C597.027269,68.8921104 597.574069,67.5100412 598.288795,66.5025364 C599.00352,65.4950317 600.032538,64.6210129 601.375877,63.8804538 C602.340326,63.3465624 603.666424,62.9332333 605.354209,62.6404541 C607.041995,62.347675 608.867532,62.2012876 610.830875,62.2012876 C613.982556,62.2012876 616.514197,62.3778136 618.425873,62.7308708 C620.337548,63.083928 621.930588,63.8201705 623.205038,64.9396202 C624.100598,65.7146239 624.806702,66.8125293 625.323371,68.2333693 C625.84004,69.6542094 626.098371,71.0104455 626.098371,72.3021182 L626.098371,84.4179483 C626.098371,85.7096211 626.180175,86.7214163 626.343787,87.4533642 C626.507399,88.1853121 626.864757,89.1196081 627.41587,90.2562801 L617.54754,90.2562801 C617.151427,89.5501657 616.893096,89.0119767 616.77254,88.6416972 C616.651984,88.2714177 616.531429,87.6901736 616.410873,86.8979477 C615.033089,88.2240651 613.663936,89.1712776 612.303374,89.7396136 C610.443365,90.4973949 608.281999,90.8762799 605.819209,90.8762799 C602.546972,90.8762799 600.062692,90.1185099 598.366295,88.6029472 C596.669898,87.0873845 595.821712,85.2187926 595.821712,82.9971154 C595.821712,80.9132166 596.433095,79.1996231 597.655878,77.8562834 C598.878662,76.5129437 601.13475,75.5140651 604.42421,74.8596175 C608.368117,74.0673916 610.925591,73.5119806 612.096708,73.193368 C613.267824,72.8747554 614.507812,72.4571208 615.816707,71.9404517 C615.816707,70.6487789 615.549765,69.7446215 615.015874,69.2279524 C614.481982,68.7112833 613.543381,68.4529526 612.200041,68.4529526 C610.477811,68.4529526 609.186157,68.7285053 608.325042,69.279619 C607.653372,69.7101766 607.110878,70.5196128 606.697542,71.7079517 L606.697542,71.7079517 Z M615.816707,77.2362836 C614.370033,77.7529527 612.863104,78.2093369 611.295875,78.6054499 C609.160309,79.1737859 607.808378,79.7335024 607.240042,80.2846161 C606.654484,80.8529521 606.361709,81.4987788 606.361709,82.2221156 C606.361709,83.0487862 606.650178,83.7247514 607.227126,84.2500317 C607.804073,84.775312 608.652259,85.0379482 609.771708,85.0379482 C610.942825,85.0379482 612.032119,84.7537844 613.039624,84.1854484 C614.047129,83.6171124 614.761844,82.923925 615.18379,82.1058656 C615.605737,81.2878062 615.816707,80.2243449 615.816707,78.9154498 L615.816707,77.2362836 Z M632.763369,52.3846235 L643.303366,52.3846235 L643.303366,90.2562801 L632.763369,90.2562801 L632.763369,52.3846235 Z M650.045864,79.7162829 L661.283361,79.7162829 L661.283361,90.2562801 L650.045864,90.2562801 L650.045864,79.7162829 Z" id="Imagination-made-real." fill="#FFFFFF" sketch:type="MSShapeGroup"></path>
            </g>
        </g>
    </g>
</svg>