<?xml version="1.0" encoding="UTF-8" standalone="no"?>
<svg width="168px" height="71px" viewBox="0 0 168 71" version="1.1" xmlns="http://www.w3.org/2000/svg" xmlns:xlink="http://www.w3.org/1999/xlink" xmlns:sketch="http://www.bohemiancoding.com/sketch/ns">
    <!-- Generator: Sketch 3.1 (8751) - http://www.bohemiancoding.com/sketch -->
    <title>menuLogo@2x</title>
    <desc>Created with Sketch.</desc>
    <defs></defs>
    <g id="Welcome" stroke="none" stroke-width="1" fill="none" fill-rule="evenodd" sketch:type="MSPage">
        <g id="Desktop" sketch:type="MSArtboardGroup" transform="translate(-193.000000, 0.000000)">
            <g id="menuLogo" sketch:type="MSLayerGroup" transform="translate(194.000000, 0.000000)">
                <rect id="Rectangle-7" fill="#565658" sketch:type="MSShapeGroup" x="0" y="14" width="166" height="26"></rect>
                <path d="M119.918891,26.0080345 C119.26038,25.1499138 118.368876,24.7214655 117.240701,24.7214655 C116.161577,24.7214655 115.297051,25.1560345 114.639766,26.0263966 C113.986161,26.8992069 113.661197,28.3412414 113.661197,30.3525 C113.661197,32.3478448 113.983708,33.7800862 114.634861,34.6504483 C115.287241,35.5232586 116.170161,35.9590517 117.288526,35.9590517 C118.438774,35.9590517 119.330277,35.5318276 119.959358,34.6773793 C120.589664,33.822931 120.908496,32.2927586 120.908496,30.0844138 C120.908496,28.2249483 120.577401,26.8661552 119.918891,26.0080345" id="Fill-1" fill="#FFFFFF" sketch:type="MSShapeGroup"></path>
                <path d="M96.5264234,35.9443621 L99.2561168,35.9443621 C100.178277,35.9443621 100.830657,35.757069 101.20835,35.384931 C101.584818,35.011569 101.773664,34.5121207 101.773664,33.8829138 C101.773664,33.3002241 101.58727,32.8301552 101.213255,32.4751552 C100.839241,32.1213793 100.183182,31.941431 99.2450803,31.941431 L96.5264234,31.941431 L96.5264234,35.9443621" id="Fill-2" fill="#FFFFFF" sketch:type="MSShapeGroup"></path>
                <path d="M101.089401,26.27 C101.089401,25.6971034 100.926307,25.2478448 100.597664,24.9222241 C100.270248,24.5990517 99.7024818,24.4386897 98.8906861,24.4386897 L96.5264234,24.4386897 L96.5264234,28.1833276 L98.8538978,28.1833276 C99.690219,28.1833276 100.270248,28.0205172 100.597664,27.6924483 C100.926307,27.3631552 101.089401,26.8894138 101.089401,26.27" id="Fill-3" fill="#FFFFFF" sketch:type="MSShapeGroup"></path>
                <path d="M133.254657,39.9889138 L139.622715,39.9889138 L133.254657,29.3425862 L133.254657,39.9889138" id="Fill-4" fill="#FFFFFF" sketch:type="MSShapeGroup"></path>
                <path d="M158.024234,30.3659655 C158.024234,28.2739138 157.725022,26.8404483 157.124146,26.0680172 C156.528175,25.2968103 155.533664,24.9099828 154.146745,24.9099828 L152.812555,24.9099828 L152.812555,35.7019828 L154.123445,35.7019828 C155.24181,35.7019828 156.036438,35.5612069 156.511007,35.2772069 C156.985577,34.994431 157.35346,34.4998793 157.622015,33.7947759 C157.890569,33.0908966 158.024234,31.9475517 158.024234,30.3659655" id="Fill-5" fill="#FFFFFF" sketch:type="MSShapeGroup"></path>
                <path d="M78.982073,32.6563276 L82.788438,32.6563276 L80.8766715,25.5551034 L78.982073,32.6563276" id="Fill-6" fill="#FFFFFF" sketch:type="MSShapeGroup"></path>
                <path d="M14.089927,39.1981207 C13.5442336,39.1222241 13.1420146,39.2605517 13.0574015,39.7783621 C13.0488175,39.8530345 13.0512701,39.9240345 13.0561752,39.9889138 L13.0402336,39.9889138 C13.0414599,40.0011552 13.0365547,40.0195172 13.0390073,40.0293103 L14.9225693,40.2998448 L14.9532263,40.0929655 C14.9581314,40.0562414 14.9434161,40.0244138 14.9434161,39.9889138 L14.9581314,39.9889138 C14.9470949,39.5800517 14.6098686,39.2740172 14.089927,39.1981207" id="Fill-7" fill="#FFFFFF" sketch:type="MSShapeGroup"></path>
                <path d="M40.3935766,39.9889138 L48.0798832,39.9889138 L47.2668613,36.928569 L41.1857518,36.928569 L40.3935766,39.9889138" id="Fill-8" fill="#FFFFFF" sketch:type="MSShapeGroup"></path>
                <path d="M42.3494891,32.6563276 L46.155854,32.6563276 L44.241635,25.5551034 L42.3494891,32.6563276" id="Fill-9" fill="#FFFFFF" sketch:type="MSShapeGroup"></path>
                <path d="M77.0261606,39.9889138 L84.7124672,39.9889138 L83.8994453,36.928569 L77.8183358,36.928569 L77.0261606,39.9889138" id="Fill-10" fill="#FFFFFF" sketch:type="MSShapeGroup"></path>
                <path d="M-0.306569343,0.018362069 L-0.306569343,39.9889138 L3.72052555,39.9889138 L1.40408759,56.223431 L22.7609343,59.2972414 C23.7051679,59.4343448 24.7830657,59.4049655 25.9970803,59.2164483 C26.8824526,59.0817931 27.7543358,58.6778276 28.6078248,58.0045517 C29.4600876,57.3349483 30.1786861,56.4511207 30.7611679,55.3604138 C31.3448759,54.2672586 31.7851095,52.6771034 32.0855474,50.5875 C32.2768467,49.2544138 32.3173139,47.9727414 32.2069489,46.7412586 C32.0990365,45.5097759 31.7949197,44.3994828 31.3019562,43.4103793 C30.8065401,42.4249483 30.1136934,41.6219138 29.2283212,41.0049483 C28.5931095,40.5630345 27.7788613,40.2263966 26.7990657,39.9889138 L26.7169051,39.9889138 C26.4250511,39.9215862 26.1258394,39.8591552 25.8070073,39.8077414 L19.3886715,20.4369828 L24.9854015,20.4369828 L28.8874161,34.6504483 L32.7354745,20.4369828 L38.1703358,20.4369828 L31.8035036,39.9889138 L34.9390949,39.9889138 L41.3868613,20.4369828 L47.2288467,20.4369828 L53.6741606,39.9889138 L58.9520584,39.9889138 C58.4174015,39.8089655 57.9097226,39.6020862 57.4645839,39.3278793 C56.1671825,38.526069 55.1628613,37.337431 54.4491679,35.7546207 C53.7354745,34.1754828 53.3786277,32.3600862 53.3786277,30.3133276 C53.3786277,28.1563966 53.7698102,26.2810172 54.5497226,24.6871897 C55.3308613,23.0933621 56.4737518,21.8826897 57.9771679,21.0563966 C59.1531679,20.4173966 60.7313869,20.0991207 62.7179562,20.0991207 C64.6334015,20.0991207 66.0656934,20.297431 67.0136058,20.6928276 C67.9651971,21.0882241 68.7524672,21.7002931 69.3803212,22.5314828 C70.0057226,23.3626724 70.4778394,24.415431 70.7917664,25.6909828 L65.6254599,26.7412931 C65.4120876,25.9957931 65.0527883,25.426569 64.5451095,25.0323966 C64.0374307,24.6357759 63.3875036,24.4386897 62.6002336,24.4386897 C61.4266861,24.4386897 60.4898102,24.9026379 59.7932847,25.8329828 C59.0955328,26.7633276 58.7460438,28.2335172 58.7460438,30.246 C58.7460438,32.3821207 59.0979854,33.9098448 59.8055474,34.8255 C60.5094307,35.7436034 61.4941314,36.2002069 62.7535182,36.2002069 C63.3519416,36.2002069 63.9246131,36.1022759 64.467854,35.9039655 C65.0123212,35.7068793 65.6340438,35.3702414 66.3367007,34.8940517 L66.3367007,33.0345862 L62.7535182,33.0345862 L62.7535182,28.923931 L71.028438,28.923931 L71.028438,37.3447759 C69.4453139,38.5762586 68.0436788,39.4147931 66.8272117,39.8591552 C66.6898686,39.9081207 66.5439416,39.946069 66.4004672,39.9889138 L71.5741314,39.9889138 L78.0194453,20.4369828 L83.8614307,20.4369828 L90.3067445,39.9889138 L91.1234453,39.9889138 L91.1234453,20.4369828 L101.148263,20.4369828 C102.818453,20.4369828 104.102365,20.9082759 104.995095,21.8508621 C105.889051,22.7946724 106.336642,23.9612759 106.336642,25.3543448 C106.336642,26.5233966 106.01781,27.5235172 105.381372,28.3596034 C104.954628,28.9165862 104.331679,29.3560517 103.512526,29.6792241 C104.758423,30.0207586 105.673226,30.6071207 106.259387,31.4370862 C106.849226,32.2695 107.14108,33.3136897 107.14108,34.5708793 C107.14108,35.5954828 106.932613,36.5148103 106.513226,37.3325345 C106.097518,38.1490345 105.527299,38.7966034 104.801343,39.2727931 C104.351299,39.5690345 103.67562,39.7844828 102.768175,39.9203621 C102.591591,39.946069 102.438307,39.9668793 102.282569,39.9889138 L113.865985,39.9889138 C113.423299,39.8407931 112.999007,39.6730862 112.613956,39.4613103 C111.332496,38.7513103 110.295066,37.63 109.500438,36.0924828 C108.703358,34.5574138 108.304818,32.6355172 108.304818,30.325569 C108.304818,27.1011897 109.093314,24.5904828 110.671533,22.7946724 C112.244847,20.9988621 114.441109,20.0991207 117.252964,20.0991207 C120.13962,20.0991207 122.361635,20.9817241 123.92146,22.746931 C125.480058,24.5121379 126.261197,26.9848966 126.261197,30.1639828 C126.261197,32.4727069 125.920292,34.3664483 125.238482,35.8439828 C124.555445,37.3215172 123.571971,38.4709828 122.283153,39.2923793 C121.841693,39.573931 121.35854,39.8028448 120.841051,39.9889138 L128.218336,39.9889138 L128.218336,20.4369828 L133.219095,20.4369828 L139.742891,31.3636379 L139.742891,20.4369828 L144.791474,20.4369828 L144.791474,39.9889138 L147.457401,39.9889138 L147.457401,20.4369828 L155.411036,20.4369828 C156.980672,20.4369828 158.247416,20.6793621 159.212496,21.1641207 C160.177577,21.6488793 160.975883,22.3454138 161.604964,23.2537241 C162.23527,24.1595862 162.695124,25.2160172 162.977168,26.4193448 C163.260438,27.6214483 163.403912,28.8982241 163.403912,30.246 C163.403912,32.3551897 163.19054,33.9930862 162.771153,35.1560172 C162.348088,36.3189483 161.763153,37.2945862 161.01635,38.0804828 C160.265869,38.8663793 159.461431,39.3890862 158.604263,39.6498276 C158.124788,39.7967241 157.668613,39.9032241 157.22838,39.9889138 L166.467153,39.7844828 L166.467153,0.018362069 L-0.306569343,0.018362069 L-0.306569343,0.018362069 Z M15.5295766,34.2011897 L15.7000292,33.015 L16.4394745,33.1202759 L16.2702482,34.3064655 L18.0446715,34.5610862 L18.2384234,33.2108621 L19.0122044,33.3222586 L18.7031825,35.4657241 L13.1076788,34.6626897 L13.4056642,32.6085862 L14.1769927,32.7199828 L13.9942774,33.9808448 L15.5295766,34.2011897 L15.5295766,34.2011897 Z M15.1298102,36.9885517 L15.3002628,35.8023621 L16.039708,35.9076379 L15.8668029,37.0938276 L17.6449051,37.3472241 L17.8386569,35.9994483 L18.6099854,36.1108448 L18.3009635,38.2543103 L12.7079124,37.4512759 L13.0034453,35.3971724 L13.7735474,35.5061207 L13.5945109,36.769431 L15.1298102,36.9885517 L15.1298102,36.9885517 Z M7.43246715,23.456931 L9.95124088,22.9109655 C10.4834453,22.8032414 11.2425109,22.640431 11.8053723,22.5522931 L11.8078248,22.5363793 C11.0892263,22.4739483 10.2197956,22.3968276 9.21424818,22.2536034 L7.63848175,22.0271379 L7.74394161,21.2889828 L13.338219,22.089569 L13.2254015,22.8681207 L10.7152117,23.4226552 C10.1744234,23.5377241 9.46808759,23.6760517 8.85740146,23.740931 L8.85494891,23.758069 C9.50610219,23.8192759 10.2982774,23.900069 11.4632409,24.0665517 L13.0218394,24.290569 L12.913927,25.0372931 L7.31964964,24.2342586 L7.43246715,23.456931 L7.43246715,23.456931 Z M9.94388321,25.3066034 C12.051854,25.6101897 12.7827153,26.4279138 12.6478248,27.361931 C12.4957664,28.4146897 11.2351533,28.7709138 9.5490219,28.5297586 C7.87270073,28.2898276 6.78008759,27.5247414 6.93091971,26.4634138 C7.09156204,25.3482241 8.44291971,25.0923793 9.94388321,25.3066034 L9.94388321,25.3066034 Z M6.66113869,28.8211034 L12.2554161,29.6229138 L12.1340146,30.4638966 L6.53851095,29.6633103 L6.66113869,28.8211034 L6.66113869,28.8211034 Z M6.4600292,30.2276379 L7.27182482,30.3451552 L7.13448175,31.302431 L11.9157372,31.9867241 L11.7931095,32.828931 L7.01308029,32.1421897 L6.87573723,33.0921207 L6.06394161,32.9758276 L6.4600292,30.2276379 L6.4600292,30.2276379 Z M5.93027737,33.9037241 L11.680292,33.6136034 L11.5637956,34.4301034 L10.0616058,34.5035517 L9.91077372,35.5563103 L11.3308029,36.0484138 L11.2143066,36.8661379 L5.78925547,34.8854828 L5.93027737,33.9037241 L5.93027737,33.9037241 Z M5.11357664,39.5825 L5.22394161,38.8039483 L7.74394161,38.2592069 C8.27491971,38.1527069 9.03643796,37.9874483 9.59929927,37.8993103 L9.60175182,37.8858448 C8.88070073,37.8209655 8.01127007,37.745069 7.00817518,37.6006207 L5.4299562,37.3753793 L5.53786861,36.636 L11.132146,37.4378103 L11.0193285,38.2151379 L8.50791241,38.7696724 C7.96589781,38.8847414 7.2620146,39.0242931 6.65132847,39.0891724 L6.64887591,39.1050862 C7.3000292,39.1675172 8.09343066,39.2483103 9.25471533,39.4147931 L10.8133139,39.6375862 L10.7642628,39.9889138 L10.7458686,39.9889138 L10.6919124,40.3647241 L8.07013139,39.9889138 L7.94872993,39.9889138 L5.11357664,39.5825 L5.11357664,39.5825 Z M7.27182482,44.7018448 C8.79240876,44.9172931 9.38470073,44.4435517 9.46318248,43.8914655 C9.48525547,43.7494655 9.48280292,43.6539828 9.46318248,43.6037931 L7.89477372,43.3797759 L7.81383942,43.9441034 L7.09278832,43.8412759 L7.28408759,42.4971724 L10.1719708,42.910931 C10.2394161,43.1533103 10.2774307,43.6074655 10.2247007,43.9698103 C10.146219,44.5121034 9.9230365,44.9356552 9.48280292,45.2343448 C8.96531387,45.5856724 8.13389781,45.7227759 7.13816058,45.5722069 C5.04245255,45.253931 4.39988321,44.0555 4.54948905,43.0186552 C4.6009927,42.6501897 4.71871533,42.3772069 4.83153285,42.2254138 L5.57220438,42.502069 C5.47042336,42.6293793 5.39194161,42.8191207 5.35392701,43.0859828 C5.25582482,43.7690517 5.69605839,44.4741552 7.27182482,44.7018448 L7.27182482,44.7018448 Z M4.84134307,41.3379138 L4.96274453,40.4981552 L10.5557956,41.2987414 L10.4356204,42.1409483 L4.84134307,41.3379138 L4.84134307,41.3379138 Z M8.48461314,55.7141897 L2.88910949,54.909931 L3.01173723,54.0713966 L8.6060146,54.8719828 L8.48461314,55.7141897 L8.48461314,55.7141897 Z M9.21670073,50.614431 L7.0449635,50.4075517 C6.40975182,50.3487931 5.64087591,50.2692241 5.02773723,50.1737414 L5.02528467,50.1982241 C5.62370803,50.3879655 6.27854015,50.6254483 6.79848175,50.8286552 L8.99474453,51.7051379 L8.91013139,52.2780345 L6.62067153,52.4787931 C6.03328467,52.54 5.31713869,52.5803966 4.68070073,52.5865172 L4.67824818,52.6097759 C5.30855474,52.708931 6.04064234,52.8460345 6.70160584,52.9721207 L8.82183942,53.3711897 L8.71637956,54.102 L3.17115328,52.9476379 L3.29868613,52.0601379 L5.64087591,51.874069 C6.38645255,51.8116379 6.99468613,51.7626724 7.64093431,51.7516552 L7.64093431,51.7357414 C7.02534307,51.5508966 6.4600292,51.3501379 5.75369343,51.0869483 L3.55743066,50.2667759 L3.68618978,49.3645862 L9.32706569,49.8530172 L9.21670073,50.614431 L9.21670073,50.614431 Z M9.73418978,47.0166897 L8.232,47.0901379 L8.08116788,48.1441207 L9.50242336,48.6362241 L9.38470073,49.4515 L3.95964964,47.472069 L4.10067153,46.4915345 L9.85191241,46.2001897 L9.73418978,47.0166897 L9.73418978,47.0166897 Z M16.0593285,53.7102759 L13.8875912,53.4972759 C13.2523796,53.436069 12.4859562,53.3565 11.8728175,53.2610172 L11.8679124,53.2830517 C12.4700146,53.4691207 13.1236204,53.6980345 13.6447883,53.8938966 L15.8435036,54.7385517 L15.7674745,55.2808448 L13.4804672,55.4522241 C12.8955328,55.5048621 12.1793869,55.5379138 11.5454015,55.5379138 L11.5429489,55.5611724 C12.1720292,55.6591034 12.9053431,55.7949828 13.563854,55.9186207 L15.6865401,56.3127931 L15.5872117,57.0019828 L10.0407591,55.8672069 L10.1609343,55.0298966 L12.4957664,54.8719828 C13.2401168,54.8193448 13.8471241,54.7789483 14.4933723,54.7728276 L14.4958248,54.7569138 C13.8753285,54.5781897 13.3124672,54.3847759 12.6036788,54.1313793 L10.4049635,53.3381379 L10.5275912,52.4861379 L16.1647883,52.9904828 L16.0593285,53.7102759 L16.0593285,53.7102759 Z M16.5486131,50.3169655 L15.0488759,50.3720517 L14.907854,51.3672759 L16.3278832,51.8434655 L16.2175182,52.6146724 L10.7838832,50.7001207 L10.9175474,49.7734483 L16.6589781,49.5445345 L16.5486131,50.3169655 L16.5486131,50.3169655 Z M16.888292,48.2371552 C16.8502774,48.5138103 16.777927,48.7831207 16.7276496,48.9569483 L11.2314745,48.1710517 C11.1971387,47.9298966 11.2020438,47.6067241 11.2523212,47.2639655 C11.3369343,46.6861724 11.5515328,46.292 11.9022482,46.0398276 C12.3682336,45.6909483 13.1346569,45.5428276 14.2567007,45.7031897 C15.4584526,45.8782414 16.1672409,46.2503793 16.5265401,46.6959655 C16.8600876,47.0840172 16.9814891,47.5932586 16.888292,48.2371552 L16.888292,48.2371552 Z M17.2451387,45.4755 L11.6508613,44.6736897 L11.9451679,42.6195862 L12.7164964,42.7309828 L12.5362336,43.9918448 L14.0715328,44.2109655 L14.2419854,43.0247759 L14.9814307,43.1300517 L14.8097518,44.3162414 L16.5866277,44.5720862 L16.7803796,43.2218621 L17.551708,43.3320345 L17.2451387,45.4755 L17.2451387,45.4755 Z M26.7438832,49.9460517 C26.5194745,51.5105 26.2214891,52.6232414 25.8572847,53.2818276 C25.4943066,53.9428621 25.0577518,54.3798793 24.5476204,54.5928793 C24.0399416,54.8071034 23.2330511,54.8328103 22.1244964,54.6748966 L20.8258686,54.4900517 L22.3611679,43.807 L23.6806423,43.9955172 C25.0552993,44.1926034 25.982365,44.7153103 26.4667445,45.5648621 C26.9498978,46.4131897 27.0406423,47.8735862 26.7438832,49.9460517 L26.7438832,49.9460517 Z M17.9281752,40.7295172 L17.8129051,41.5166379 L12.3020146,40.7282931 C12.2738102,40.5079483 12.2848467,40.248431 12.3105985,39.9889138 L12.3289927,39.9889138 C12.3363504,39.9166897 12.3375766,39.8456897 12.3486131,39.7746897 C12.4209635,39.263 12.5840584,38.8467931 12.9335474,38.5946207 C13.2707737,38.3632586 13.6595036,38.313069 14.1242628,38.3791724 C14.7705109,38.4722069 15.2377226,38.8272069 15.4216642,39.3682759 L15.4388321,39.3695 C15.6301314,39.041431 16.0298978,38.9104483 16.7080292,38.9092241 C17.4045547,38.8945345 18.020146,38.8614828 18.2212555,38.8076207 L18.1047591,39.6314655 C17.9367591,39.6743103 17.3738978,39.7000172 16.7055766,39.6951207 C16.1488467,39.6902241 15.8606715,39.7771379 15.7294599,39.9889138 L15.7061606,39.9889138 C15.6705985,40.052569 15.6423942,40.123569 15.6313577,40.2117069 L15.601927,40.3977759 L17.9281752,40.7295172 L17.9281752,40.7295172 Z M19.4095182,30.5508103 L19.1029489,32.6783621 L13.5086715,31.8765517 L13.6227153,31.0833103 L18.4714161,31.7773966 L18.6627153,30.4430862 L19.4095182,30.5508103 L19.4095182,30.5508103 Z" id="Fill-11" fill="#FFFFFF" sketch:type="MSShapeGroup"></path>
                <path d="M6.74452555,34.5415 L6.74207299,34.5647586 C7.12344526,34.6761552 7.64216058,34.8303966 7.98306569,34.9417931 L9.23509489,35.3628966 L9.36017518,34.4913103 L8.04315328,34.5280345 C7.66913869,34.5378276 7.14429197,34.532931 6.74452555,34.5415" id="Fill-12" fill="#FFFFFF" sketch:type="MSShapeGroup"></path>
                <path d="M9.68391241,27.6593966 C10.9028321,27.8344483 11.8053723,27.7389655 11.883854,27.2052414 C11.9611095,26.6629483 10.9813139,26.3458966 9.86049635,26.1855345 C8.84759124,26.0410862 7.77950365,26.048431 7.69734307,26.6139828 C7.62376642,27.1391379 8.51159124,27.4916897 9.68391241,27.6593966" id="Fill-13" fill="#FFFFFF" sketch:type="MSShapeGroup"></path>
                <path d="M14.2297226,51.1787586 L14.3474453,50.3561379 L13.0316496,50.3793966 C12.6588613,50.3867414 12.1340146,50.3793966 11.7367007,50.3818448 L11.7317956,50.4051034 C12.1143942,50.5140517 12.6343358,50.6633966 12.9752409,50.7723448 L14.2297226,51.1787586" id="Fill-14" fill="#FFFFFF" sketch:type="MSShapeGroup"></path>
                <path d="M76.9403212,47.1011552 L67.6807007,65.7288621 L73.0934891,66.5037414 L74.3945693,63.3956552 L80.4106861,64.2586724 L80.8055474,67.6091379 L86.3569051,68.4023793 L82.722219,47.9286724 L76.9403212,47.1011552 L76.9403212,47.1011552 Z M76.1518248,59.3339655 L79.0360292,52.5730517 L79.9189489,59.8725862 L76.1518248,59.3339655 L76.1518248,59.3339655 Z" id="Fill-15" fill="#FFFFFF" sketch:type="MSShapeGroup"></path>
                <path d="M66.8345693,57.155 L67.4096934,53.1679828 L59.1592993,51.9879138 L59.6068905,48.8798276 L68.499854,50.152931 L69.0982774,45.9786207 L54.8930803,43.9441034 L52.0836788,63.4960345 L66.5476204,65.5672759 L67.1828321,61.1383448 L58.0335766,59.8285172 L58.5866277,55.974931 L66.8345693,57.155" id="Fill-16" fill="#FFFFFF" sketch:type="MSShapeGroup"></path>
                <path d="M48.8573431,43.5707414 C48.0357372,43.1263793 46.8070073,42.7872931 45.169927,42.5522586 L36.3358248,41.2877241 L33.5264234,60.8396552 L38.8509197,61.6022931 L39.9913577,53.667431 L40.4585693,53.7335345 C40.9417226,53.8033103 41.3537518,54.0163103 41.6922044,54.3725345 C41.9386861,54.6455172 42.1876204,55.1927069 42.4341022,56.0177759 L44.409635,62.3979828 L50.4,63.2548793 L48.6464234,57.2223276 C48.5630365,56.9187414 48.3741898,56.4792759 48.0798832,55.9002586 C47.7818978,55.3224655 47.5501314,54.9393103 47.3772263,54.7520172 C47.1233869,54.4704655 46.6978686,54.164431 46.1006715,53.8351379 C46.9198248,53.7408793 47.5758832,53.5743966 48.0749781,53.3258966 C48.8548905,52.9402931 49.5048175,52.3808621 50.0247591,51.6525 C50.5434745,50.9253621 50.8794745,50.0170517 51.0352117,48.9324655 C51.2142482,47.6875172 51.1014307,46.5955862 50.6943066,45.6505517 C50.289635,44.7091897 49.6764964,44.0138793 48.8573431,43.5707414 L48.8573431,43.5707414 Z M45.6432701,48.6509138 C45.5807299,49.0769138 45.4164088,49.4392586 45.1454015,49.7355 C44.8768467,50.0329655 44.5604672,50.197 44.1999416,50.2263793 C43.4788905,50.3047241 42.9969635,50.3267586 42.7553869,50.2912586 L40.5211095,49.9717586 L41.0925547,45.9969828 L43.4212555,46.3311724 C44.3887883,46.4695 45.0227737,46.7339138 45.324438,47.1207414 C45.6273285,47.5100172 45.7327883,48.0192586 45.6432701,48.6509138 L45.6432701,48.6509138 Z" id="Fill-17" fill="#FFFFFF" sketch:type="MSShapeGroup"></path>
                <path d="M14.1291679,46.5184655 C12.8599708,46.3372931 12.0812847,46.5588621 11.9831825,47.2407069 C11.9709197,47.3215 11.9684672,47.4059655 11.9758248,47.4732931 L16.150073,48.0731207 C16.1770511,48.0082414 16.1893139,47.933569 16.1966715,47.880931 C16.2727007,47.3410862 15.8324672,46.762069 14.1291679,46.5184655" id="Fill-18" fill="#FFFFFF" sketch:type="MSShapeGroup"></path>
                <path d="M7.40671533,47.9507069 L7.5330219,47.0791207 L6.21354745,47.1146207 C5.83953285,47.1256379 5.31591241,47.1219655 4.91491971,47.1280862 L4.91246715,47.152569 C5.29383942,47.2627414 5.81378102,47.4169828 6.15345985,47.5296034 L7.40671533,47.9507069" id="Fill-19" fill="#FFFFFF" sketch:type="MSShapeGroup"></path>
                <path d="M98.7423066,62.3624828 L97.7625109,50.0807069 L90.7911241,49.0842586 L87.9841752,68.6361897 L92.3239708,69.2580517 L94.4650511,54.3468276 L95.6643504,69.7366897 L99.5921168,70.298569 L105.079708,55.8672069 L102.94108,70.7551724 L107.37162,70.7551724 L110.087825,51.8471379 L103.120117,50.8482414 L98.7423066,62.3624828" id="Fill-20" fill="#FFFFFF" sketch:type="MSShapeGroup"></path>
            </g>
        </g>
    </g>
</svg>